<?xml version="1.0" standalone="no"?>
<!DOCTYPE svg PUBLIC "-//W3C//DTD SVG 1.1//EN" "http://www.w3.org/Graphics/SVG/1.1/DTD/svg11.dtd" >
<!--
2013-9-30: Created.
-->
<svg>
<metadata>
Created by iconfont
</metadata>
<defs>

<font id="iot-icon" horiz-adv-x="1024" >
  <font-face
    font-family="iot-icon"
    font-weight="500"
    font-stretch="normal"
    units-per-em="1024"
    ascent="896"
    descent="-128"
  />
    <missing-glyph />
    
    <glyph glyph-name="icon_yingyong" unicode="&#58981;" d="M76.720952 205.070552l386.537889 215.800188a68.346191 68.346191 0 0 0 96.542189 0l386.566283-215.800188a68.147428 68.147428 0 0 0 0-96.542189l-386.566283-215.800187a68.346191 68.346191 0 0 0-96.542189 0L76.720952 108.528363a68.147428 68.147428 0 0 0 0 96.542189zM76.720952 432.79654l386.537889 215.800187a68.346191 68.346191 0 0 0 96.542189 0l386.566283-215.800187a68.147428 68.147428 0 0 0 0-96.542189l-386.566283-215.800188a68.346191 68.346191 0 0 0-96.542189 0L76.720952 336.254351a68.147428 68.147428 0 0 0 0 96.542189zM76.720952 660.522527L463.258841 876.038767a68.346191 68.346191 0 0 0 96.542189 0l386.566283-215.51624a68.601744 68.601744 0 0 0 0-96.826137L559.80103 348.18015a68.346191 68.346191 0 0 0-96.542189 0L76.720952 563.69639a68.544954 68.544954 0 0 0 0 96.826137z"  horiz-adv-x="1024" />

    
    <glyph glyph-name="icon_shili" unicode="&#58982;" d="M0 605.090909m46.545455 0l884.363636 0q46.545455 0 46.545454-46.545454l0-535.272728q0-46.545455-46.545454-46.545454l-884.363636 0q-46.545455 0-46.545455 46.545454l0 535.272728q0 46.545455 46.545455 46.545454ZM756.363636 162.909091a58.042182 58.042182 0 0 0-57.856 55.156364l-110.824727 110.778181a54.737455 54.737455 0 0 0-17.501091-3.025454 63.627636 63.627636 0 0 0-16.453818 2.56l-144.523636-144.989091a58.181818 58.181818 0 1 0-96.139637 1.163636l-105.285818 105.192728A58.181818 58.181818 0 1 0 232.727273 337.454545a57.274182 57.274182 0 0 0-8.96-30.72l106.216727-106.356363a55.854545 55.854545 0 0 0 30.743273 9.076363 58.577455 58.577455 0 0 0 32.186182-9.774545l139.636363 140.334545a57.367273 57.367273 0 0 0-20.596363 43.985455 58.181818 58.181818 0 1 0 96.698181-43.287273l95.069091-95.185454A58.181818 58.181818 0 1 0 756.363636 162.909091zM872.727273 674.909091h-768a34.909091 34.909091 0 0 0 0 69.818182h768a34.909091 34.909091 0 0 0 0-69.818182z m-93.090909 139.636364h-581.818182a34.909091 34.909091 0 0 0 0 69.818181h581.818182a34.909091 34.909091 0 0 0 0-69.818181zM1044.945455 134.516364l-25.367273 3.258181a174.917818 174.917818 0 0 1-15.848727 34.909091l15.848727 18.850909a29.067636 29.067636 0 0 1 0 38.167273l-22.178909 22.341818a28.788364 28.788364 0 0 1-38.050909 0l-19.013819-16.058181a115.083636 115.083636 0 0 1-34.90909 16.058181l-3.165091 25.367273a25.088 25.088 0 0 1-25.367273 25.367273H845.265455a27.345455 27.345455 0 0 1-25.344-25.367273l-3.188364-25.367273a300.334545 300.334545 0 0 1-34.909091-16.058181l-19.013818 16.058181a28.834909 28.834909 0 0 1-38.027637 0l-22.202181-22.341818a34.001455 34.001455 0 0 1-6.330182-19.083636 27.112727 27.112727 0 0 1 6.330182-19.083637l15.848727-18.850909a119.226182 119.226182 0 0 1-15.848727-34.909091l-25.344-3.258181a25.018182 25.018182 0 0 1-25.367273-25.367273v-31.883636a25.088 25.088 0 0 1 25.367273-25.367273l25.344-3.025455a172.218182 172.218182 0 0 1 15.848727-35.141818l-15.848727-18.850909a46.545455 46.545455 0 0 1-6.330182-19.083636 23.272727 23.272727 0 0 1 6.330182-19.083637l22.202181-22.341818a28.765091 28.765091 0 0 1 38.027637 0l19.013818 16.058182a115.618909 115.618909 0 0 1 34.909091-16.058182l3.188364-25.367273a25.064727 25.064727 0 0 1 25.344-25.367272h31.697454a27.112727 27.112727 0 0 1 25.367273 25.367272l3.165091 25.367273a166.376727 166.376727 0 0 1 34.909091 16.058182l19.013818-16.058182a28.858182 28.858182 0 0 1 38.050909 0l22.178909 22.341818a28.997818 28.997818 0 0 1 0 38.167273l-15.848727 18.850909a117.341091 117.341091 0 0 1 15.848727 35.141818l25.367273 3.025455a25.018182 25.018182 0 0 1 25.344 25.367273v31.883636a25.064727 25.064727 0 0 1-25.344 25.367273z m-183.854546-104.727273a63.418182 63.418182 0 1 0 63.394909 63.534545A63.534545 63.534545 0 0 0 861.090909 29.789091z m0 0"  horiz-adv-x="1070" />

    
    <glyph glyph-name="bianyuanyingyongguanli" unicode="&#58980;" d="M891.904 92.032L576-90.176a128 128 0 0 0-128 0l-315.968 182.208a128 128 0 0 0-64 110.912V567.04a128 128 0 0 0 64 110.848L448 860.096a128 128 0 0 0 128 0l315.968-182.208a128 128 0 0 0 64-110.848v-364.096a128 128 0 0 0-64.064-110.912zM806.4 544.96a64 64 0 0 1-87.424 23.424L512 448.96 305.152 568.384a64 64 0 1 1-64-110.848l209.984-121.216a61.76 61.76 0 0 1-3.136-15.36v-192a64 64 0 0 1 128 0v192a58.816 58.816 0 0 1-3.328 15.232l210.176 121.6a64 64 0 0 1 23.552 87.168z"  horiz-adv-x="1024" />

    
    <glyph glyph-name="xlsx" unicode="&#58947;" d="M531.243 810.667H588.8v-79.403h290.73a87.467 87.467 0 0 0 48.64-10.027 97.835 97.835 0 0 0 10.027-50.176q-0.81-258.602 0-516.821a425.643 425.643 0 0 0-3.328-86.827c-3.797-20.693-28.074-21.333-44.202-21.888H589.312v-88.192h-60.245c-148.096 27.094-295.979 52.523-443.734 79.019V731.136c148.694 26.539 297.344 52.608 445.91 79.53zM586.581 700.885h321.664v-624.213H586.581v59.435h77.995V205.44h-77.995v40.064h77.995v68.95h-77.995v39.594h77.995v69.461h-77.995v40.064h77.995v68.864h-77.995v40.064h77.995V641.58h-77.995zM703.53 641.963h136.534v-69.803H703.531zM373.973 549.632q33.195 2.432 66.304 4.267-39.04-81.835-78.592-163.542c26.752-55.808 54.187-110.933 80.726-167.168l-70.614 4.523a1202.347 1202.347 0 0 0-48.64 125.397c-13.226-40.362-32.17-78.805-47.402-118.442-21.334 0-42.667 1.194-64 2.133 25.002 50.432 49.237 100.907 75.05 150.613-21.973 51.2-45.994 101.718-68.608 152.832l64.256 3.712c14.55-39.04 30.251-77.482 42.368-117.546 13.526 42.666 32.896 82.346 49.152 123.306zM703.53 533.888h136.534v-69.803H703.531z m0-109.653h136.534v-69.931H703.531z m0-109.782h136.534v-69.802H703.531z m0-109.781h136.534v-69.803H703.531z"  horiz-adv-x="1024" />

    
    <glyph glyph-name="yingyongguanli" unicode="&#58979;" d="M512.128-128L42.944 128V640L512.128 896 981.333333 640v-512zM917.333333 608L512.106667 832 106.922667 608v-448L512.106667-64 917.333333 160v448z m-437.333333-512V381.461333l-251.989333 145.493334a32 32 0 1 0 32 55.466666L512 436.906667l252.117333 145.557333a32 32 0 0 0 32-55.466667L544 381.482667V96a32 32 0 0 0-64 0z"  horiz-adv-x="1024" />

    
    <glyph glyph-name="zaixiantiaoshi1" unicode="&#58978;" d="M928 581.888V-96a32 32 0 0 0-64 0V581.888a95.445333 95.445333 0 0 0 0 180.245333V864a32 32 0 0 0 64 0v-101.866667a95.445333 95.445333 0 0 0 0-180.245333zM896 704a32 32 0 1 1 32-32A32 32 0 0 1 896 704zM544 389.888V-96a32 32 0 0 0-64 0V389.888a95.445333 95.445333 0 0 0 0 180.224V864a32 32 0 0 0 64 0v-293.888a95.445333 95.445333 0 0 0 0-180.224z m-384-384V-96a32 32 0 0 0-64 0v101.888a95.445333 95.445333 0 0 0 0 180.245333V864a32 32 0 0 0 64 0v-677.866667a95.445333 95.445333 0 0 0 0-180.245333zM128 128A32 32 0 1 1 160 96 32 32 0 0 1 128 128z"  horiz-adv-x="1024" />

    
    <glyph glyph-name="lianjiepeizhi" unicode="&#58977;" d="M858.05234223 281.67376221999996V754.78914044a24.71867205 24.71867205 0 0 0 49.43734334 1e-8v-510.29226056a181.81407083 181.81407083 0 0 1-49.43734334 37.17688233z m17.36898669-75.30955333a18.24237994 18.24237994 0 0 0 0-23.99359114l-9.96986438-11.99679479a106.83409987 106.83409987 0 0 0 9.96986438-21.98313918l15.96826177-1.99397273a15.75403327 15.75403327 0 0 0 15.96826178-15.98474101V110.45576204999998a15.75403327 15.75403327 0 0 0-15.96826178-15.98474101l-15.96826177-1.99397272a73.80995378 73.80995378 0 0 0-9.96986438-21.98313918l9.96986438-11.99679479a18.12702607 18.12702607 0 0 0 0-23.97711191l-13.9578106-13.99076829a18.12702607 18.12702607 0 0 0-23.94415343 0l-11.9638371 9.98634362a106.20789359 106.20789359 0 0 0-21.95018072-9.98634362l-1.99397271-15.98474101a17.08884202 17.08884202 0 0 0-15.95178255-16.00122024H765.76930077a15.75403327 15.75403327 0 0 0-15.96826255 16.00122024l-1.99397272 15.98474101a73.61220452 73.61220452 0 0 0-21.95018071 9.98634362l-11.9638371-9.98634362a18.12702607 18.12702607 0 0 0-23.94415343 0l-13.95780983 13.99076829a14.68289074 14.68289074 0 0 0-3.98794543 11.98031633 28.47590976 28.47590976 0 0 0 3.98794543 11.99679558l9.96986438 11.99679479a107.22959842 107.22959842 0 0 0-9.96986438 21.98313918l-15.96826177 1.99397272a15.73755403 15.73755403 0 0 0-15.95178332 15.98474101v19.98916569a15.73755403 15.73755403 0 0 0 15.95178332 15.98474178l15.96826177 1.99397273a73.62868375 73.62868375 0 0 0 9.96986438 21.9831384l-9.96986438 11.99679557a16.92405043 16.92405043 0 0 0-3.98794543 11.99679557 21.42284906 21.42284906 0 0 0 3.98794543 11.99679557l13.95780983 13.99076752a18.20942148 18.20942148 0 0 0 23.94415343 0l11.9638371-10.00282209a196.59583621 196.59583621 0 0 0 21.95018071 10.00282209l1.99397272 15.98474178a17.17123741 17.17123741 0 0 0 15.96826255 15.98474101h19.95620722a15.73755403 15.73755403 0 0 0 15.95178331-15.98474101l1.99397272-15.98474178a73.85939149 73.85939149 0 0 0 21.95018071-10.00282209l11.9638371 10.00282209a18.12702607 18.12702607 0 0 0 23.94415343 0zM775.65676898 178.94296241999996A58.5997314 58.5997314 0 1 1 834.25650038 120.34323101999996 58.5997314 58.5997314 0 0 1 775.65676898 178.94296241999996zM577.90739484 87.38500188v49.43734334h17.30306974c-0.47789394-5.43810804-0.82395555-10.90917381-0.82395556-16.47911419a182.42379788 182.42379788 0 0 1 3.13103219-32.95822915H577.90739484z m0 98.87468745v49.43734335h57.92408741a180.56165827 180.56165827 0 0 1-28.90436677-49.43734335H577.90739484z m24.71867128 461.41520657a32.95822914 32.95822914 0 1 0 32.95822915-32.95822916 32.95822914 32.95822914 0 0 0-32.95822915 32.95822916zM693.26119648 285.13437601h-115.35380164v49.43734411h115.35380164v-49.43734411z m49.43734334 13.34808278V697.11224002a32.95822914 32.95822914 0 0 1-32.95822915 32.95822914h-148.31203079a32.95822914 32.95822914 0 0 1-32.95822916-32.95822914v-626.20635311a32.95822914 32.95822914 0 0 1 32.95822916-32.95822914h52.8979579a181.81407083 181.81407083 0 0 1 37.17688234-49.43734334H511.99093653a32.95822914 32.95822914 0 0 0-32.95822913 32.95822914v65.91645831h-49.43734335v-65.91645831a32.95822914 32.95822914 0 0 0-32.95822916-32.95822914H149.45041665a32.95822914 32.95822914 0 0 0-32.95822915 32.95822914V746.54958335a32.95822914 32.95822914 0 0 0 32.95822915 32.95822915h247.18671824a32.95822914 32.95822914 0 0 0 32.95822916-32.95822915v-609.72723813h49.43734334V746.54958335a32.95822914 32.95822914 0 0 0 32.95822914 32.95822915h247.18671825a32.95822914 32.95822914 0 0 0 32.95822914-32.95822915v-445.76004793c-5.43810804 0.47789394-10.90917381 0.82395555-16.47911495 0.82395556a182.42379788 182.42379788 0 0 1-32.95822915-3.13103219zM380.15801993 697.11224002a32.95822914 32.95822914 0 0 1-32.95822915 32.95822914H198.88775998a32.95822914 32.95822914 0 0 1-32.95822914-32.95822914v-626.20635311a32.95822914 32.95822914 0 0 1 32.95822914-32.95822914h148.31203079a32.95822914 32.95822914 0 0 1 32.95822916 32.95822914V697.11224002zM215.36687495 136.82234522h115.35380164v-49.43734334H215.36687495v49.43734333z m0 98.87468746h115.35380164v-49.43734335H215.36687495v49.43734335z m0 98.87468744h115.35380164v-49.43734412H215.36687495v49.43734412z m57.67690043 280.14494662a32.95822914 32.95822914 0 1 0 32.95822915 32.95822916 32.95822914 32.95822914 0 0 0-32.95822915-32.95822916z"  horiz-adv-x="1024" />

    
    <glyph glyph-name="lianjiepeizhiguanli" unicode="&#58976;" d="M0 76.80512h870.39456v-51.19968H0zM1075.19328-76.79392h-25.59984a51.19968 51.19968 0 0 0-51.19968 51.19968V844.80032a51.19968 51.19968 0 0 0 51.19968 51.19968h25.59984a51.19968 51.19968 0 0 0 51.19968-51.19968v-870.39456a51.19968 51.19968 0 0 0-51.19968-51.19968z m-307.19808 0H511.9968a51.19968 51.19968 0 0 0-51.19968 51.19968V844.80032a51.19968 51.19968 0 0 0 51.19968 51.19968h255.9984a51.19968 51.19968 0 0 0 51.19968-51.19968v-870.39456a51.19968 51.19968 0 0 0-51.19968-51.19968z m-460.79712 0H51.19968a51.19968 51.19968 0 0 0-51.19968 51.19968V844.80032a51.19968 51.19968 0 0 0 51.19968 51.19968h255.9984a51.19968 51.19968 0 0 0 51.19968-51.19968v-870.39456a51.19968 51.19968 0 0 0-51.19968-51.19968zM102.39936 128.0048v76.79952h153.59904v-76.79952H102.39936z m0 230.39856h153.59904v-76.79952H102.39936v76.79952z m0 153.59904h153.59904v-76.79952H102.39936v76.79952z m76.79952 179.19888a51.19968 51.19968 0 1 0 51.19968 51.19968 51.19968 51.19968 0 0 0-51.19968-51.19968zM563.19648 128.0048v76.79952h153.59904v-76.79952h-153.59904z m0 230.39856h153.59904v-76.79952h-153.59904v76.79952z m0 153.59904h153.59904v-76.79952h-153.59904v76.79952z m76.79952 179.19888a51.19968 51.19968 0 1 0 51.19968 51.19968 51.19968 51.19968 0 0 0-51.19968-51.19968zM1149.432816 147.972675l-27.903826 3.583978a192.408397 192.408397 0 0 1-17.433491 38.39976l17.433491 20.73587a31.9742 31.9742 0 0 1 0 41.983738l-24.396647 24.575846a31.641402 31.641402 0 0 1-41.830139 0l-20.940669-17.663889a126.591209 126.591209 0 0 1-38.39976 17.663889l-3.481578 27.903826a27.596628 27.596628 0 0 1-27.903826 27.903825H929.786189a30.079812 30.079812 0 0 1-27.878226-27.903825l-3.507178-27.903826a330.365935 330.365935 0 0 1-38.39976-17.663889l-20.915069 17.663889a31.718202 31.718202 0 0 1-41.830139 0l-24.422247-24.575846a37.401366 37.401366 0 0 1-6.963157-20.991869 29.823814 29.823814 0 0 1 6.963157-20.991869l17.433491-20.73587a131.14798 131.14798 0 0 1-17.433491-38.39976l-27.878226-3.583978a27.519828 27.519828 0 0 1-27.903826-27.903825v-35.071781a27.596628 27.596628 0 0 1 27.903826-27.903826l27.878226-3.583977a193.867588 193.867588 0 0 1 17.433491-38.39976l-17.433491-20.735871a51.19968 51.19968 0 0 1-6.963157-20.991869 25.59984 25.59984 0 0 1 6.963157-20.991868l24.422247-24.575847a31.641402 31.641402 0 0 1 41.830139 0l20.915069 17.66389a127.180005 127.180005 0 0 1 38.39976-17.66389l3.507178-27.903825A27.571028 27.571028 0 0 1 929.786189-127.9936h34.866982a29.823814 29.823814 0 0 1 27.903826 27.903826l3.481578 27.903825a182.42446 182.42446 0 0 1 38.39976 17.66389l20.940669-17.66389a31.718202 31.718202 0 0 1 41.830138 0l24.396648 24.575847a31.897401 31.897401 0 0 1 0 41.983737l-17.433491 20.735871a130.559184 130.559184 0 0 1 17.433491 38.39976l27.903826 3.583977a27.519828 27.519828 0 0 1 27.903825 27.903826v35.071781a27.596628 27.596628 0 0 1-27.903825 27.903825z m-202.238736-115.19928a69.759564 69.759564 0 1 0 69.733964 69.887563A69.887563 69.887563 0 0 0 947.19408 32.773395z m0 0"  horiz-adv-x="1177" />

    
    <glyph glyph-name="shujujierufuwu" unicode="&#58974;" d="M352.7832 128.00896h299.765509a191.99328 191.99328 0 1 0 0-127.99552H352.7832a223.99216 223.99216 0 0 0 0 447.98432h319.988801a95.99664 95.99664 0 0 1 0 191.99328H373.006493a191.99328 191.99328 0 1 0 0 127.99552H672.772001a223.99216 223.99216 0 0 0 0-447.98432h-319.988801a95.99664 95.99664 0 0 1 0-191.99328z"  horiz-adv-x="1025" />

    
    <glyph glyph-name="docker" unicode="&#58975;" d="M285.62354 72.041102c-40.489491 0-77.257356 33.150864-77.257356 73.595516s33.150864 73.610462 77.257356 73.610463 77.272303-33.150864 77.272303-73.58057-36.857543-73.595516-77.272303-73.595516zM1233.875759 472.870621c-7.996263 58.918262-44.405418 106.641756-92.368052 143.484353l-18.63802 14.751985-15.110696-18.398879c-29.294722-33.135918-40.848202-91.979449-37.290985-136.011209 3.557216-33.240542 14.198972-66.301728 32.881831-92.084073-15.110696-7.293788-33.778608-14.662307-47.992527-21.881364-33.748716-11.03036-66.6156-14.766931-99.467539-14.766931H5.709482l-3.54227-22.090612a413.369454 413.369454 0 0 1 33.300327-209.756189l14.737038-25.782345v-3.54227c88.810836-147.16114 246.897711-213.283512 419.258291-213.283512 331.2695 0 603.022887 143.349837 731.81504 452.364316 84.371789-3.736572 169.625409 18.398879 209.591779 99.273237l10.656703 18.398879-17.756189 11.030359c-47.992527 29.324615-113.756189 33.135918-168.833256 18.383933z m-474.24568 58.918263h-143.783278v-143.484353h143.872956v143.57403z m0 180.237272h-143.783278V568.676319h143.872956v143.275106z m0 183.973844h-143.783278v-143.364783h143.872956V895.910322z m175.843064-364.211116h-142.901448v-143.484353h143.349837v143.57403z m-532.865016 0h-142.901448v-143.484353h143.349837v143.57403z m179.355441 0h-142.049509v-143.484353h142.976179v143.57403z m-357.021952 0h-141.989724v-143.484353h143.872956v143.57403z m357.066791 180.237272h-142.094348V568.676319h142.976179v143.275106z m-180.297057 0h-142.079402V568.676319h142.976179v143.275106z"  horiz-adv-x="1424" />

    
    <glyph glyph-name="tuichuquanping1" unicode="&#58972;" d="M1024.05104 842.407477L745.752723 564.23676h227.257819v-76.560748h-357.283489V844.959502h76.560748v-227.130219L970.458517 896z m-944.249221-354.731465h-76.560747V896h408.323987v-76.560748h-331.76324v-331.76324z m-25.520249-280.722741v76.560748h357.283489v-357.283489h-76.560747v226.543252l-280.901384-280.722742-54.128448 54.153969 280.926903 280.722742h-226.619813z m893.208723 76.560748h76.560747v-408.323988h-408.323987v76.560748h331.76324V283.514019z"  horiz-adv-x="1024" />

    
    <glyph glyph-name="quanping2" unicode="&#58973;" d="M614.4-128v76.8h332.8V281.6h76.8v-409.6H614.4zM947.2 765.44L668.16 486.4 614.4 540.16 893.44 819.2H614.4V896h409.6v-409.6h-76.8V765.44zM406.6816-51.7888V-128H0V278.8096h76.2112v-276.6848L355.84 281.6l53.76-53.76L130.048-51.7888h276.7616zM76.8 486.4H0V896h409.6v-76.8H76.8v-332.8z"  horiz-adv-x="1024" />

    
    <glyph glyph-name="shanchu" unicode="&#58958;" d="M985.6 665.6H921.6v-742.4a51.2 51.2 0 0 0-51.2-51.2H153.6a51.2 51.2 0 0 0-51.2 51.2V665.6H38.4a38.4 38.4 0 0 0 0 76.8H281.6V844.8a51.2 51.2 0 0 0 51.2 51.2h358.4a51.2 51.2 0 0 0 51.2-51.2v-102.4h243.2a38.4 38.4 0 0 0 0-76.8zM665.6 819.2H358.4v-76.8h307.2V819.2z m179.2-153.6H179.2v-716.8h665.6V665.6z m-524.8-102.4a38.4 38.4 0 0 0 38.4-38.4v-435.2a38.4 38.4 0 0 0-76.8 0v435.2a38.4 38.4 0 0 0 38.4 38.4z m192 0a38.4 38.4 0 0 0 38.4-38.4v-435.2a38.4 38.4 0 0 0-76.8 0v435.2A38.4 38.4 0 0 0 512 563.2z m192 0a38.4 38.4 0 0 0 38.4-38.4v-435.2a38.4 38.4 0 0 0-76.8 0v435.2a38.4 38.4 0 0 0 38.4 38.4z"  horiz-adv-x="1024" />

    
    <glyph glyph-name="jingyin1" unicode="&#58970;" d="M39.144196 841.674843L226.653609 633.136338H100.771122A100.472333 100.472333 0 0 1 0.006718 531.495722v-294.991444A100.764404 100.764404 0 0 1 100.771122 136.616087h128.511123a15.77182 15.77182 0 0 0 4.965203 0l278.635482-241.83457a96.383343 96.383343 0 0 1 60.458642-21.029093 100.180262 100.180262 0 0 1 49.944096 13.435254A104.853394 104.853394 0 0 1 671.76941-23.146606V136.616087l235.409013-262.863663 66.592128 53.741016L106.028395 896zM584.148189-29.572162a9.930405 9.930405 0 0 0-6.133485-9.638334 9.054193 9.054193 0 0 0-9.346264 0l-278.635482 241.542498A97.259555 97.259555 0 0 1 229.282245 224.237307h-128.511123a13.143183 13.143183 0 0 0-13.143184 12.266971v294.991444a13.143183 13.143183 0 0 0 13.143184 14.019395h128.511123a99.596121 99.596121 0 0 1 58.414147 19.568739L584.148189 233.2915zM566.916016 806.042213a9.346264 9.346264 0 0 0 11.098688 0 9.930405 9.930405 0 0 0 6.133485-9.638334v-312.515687l87.621221-97.551626V791.438677A103.685111 103.685111 0 0 1 622.409456 882.856817a98.135767 98.135767 0 0 1-111.278951-9.346264l-154.505419-134.352538 58.414147-65.131774zM852.853266 384a233.656589 233.656589 0 0 0-43.518539-136.104963 44.102681 44.102681 0 0 1-4.673132-9.054193l53.156874-58.414147a42.350257 42.350257 0 0 1 20.737022 14.603537 321.277809 321.277809 0 0 1 0 379.691957 43.51854 43.51854 0 0 1-65.715915 3.796919 44.394752 44.394752 0 0 1-3.504849-58.414147 231.904164 231.904164 0 0 0 43.518539-136.104963zM1022.254293 720.757558a43.81061 43.81061 0 0 1-67.46834-56.077581 438.106104 438.106104 0 0 0 0-560.191671 41.474044 41.474044 0 0 1-9.054193-24.241871l42.058186-47.023389a42.642327 42.642327 0 0 1 36.216772 15.77182A525.727325 525.727325 0 0 1 1022.254293 720.757558z"  horiz-adv-x="1144" />

    
    <glyph glyph-name="yinliang1" unicode="&#58971;" d="M622.409456 882.856817a98.135767 98.135767 0 0 1-111.278951-9.346264L236.584014 635.180833 228.990175 633.136338H100.771122A100.472333 100.472333 0 0 1 0.006718 531.495722v-294.991444A100.764404 100.764404 0 0 1 100.771122 136.616087h128.511123a15.77182 15.77182 0 0 0 4.965203 0l278.635482-241.83457a96.383343 96.383343 0 0 1 60.458642-21.029093 100.180262 100.180262 0 0 1 49.944096 13.435254A104.853394 104.853394 0 0 1 671.76941-23.146606V791.438677A103.685111 103.685111 0 0 1 622.409456 882.856817zM584.148189-29.572162a9.930405 9.930405 0 0 0-6.133485-9.638334 9.054193 9.054193 0 0 0-9.346264 0l-278.635482 241.542498A97.259555 97.259555 0 0 1 229.282245 224.237307h-128.511123a13.143183 13.143183 0 0 0-13.143184 12.266971v294.991444a13.143183 13.143183 0 0 0 13.143184 14.019395h128.511123a100.180262 100.180262 0 0 1 62.795209 21.613234l275.130633 238.913862a9.346264 9.346264 0 0 0 11.098688 0 9.930405 9.930405 0 0 0 6.133485-9.638334zM812.839576 577.642898a44.394752 44.394752 0 0 1-3.504849-58.414147 233.656589 233.656589 0 0 0 0-272.209926 44.394752 44.394752 0 0 1 3.504849-58.414147 43.51854 43.51854 0 0 1 65.715915 6.425556 321.277809 321.277809 0 0 1 0 379.691957 43.51854 43.51854 0 0 1-65.715915 2.920707zM1022.254293 720.757558a43.81061 43.81061 0 0 1-67.46834-56.077581 438.106104 438.106104 0 0 0 0-560.191671 43.51854 43.51854 0 0 1 2.920708-58.414147A44.102681 44.102681 0 0 1 1022.254293 48.994866a525.727325 525.727325 0 0 1 0 671.762692z"  horiz-adv-x="1144" />

    
    <glyph glyph-name="daohang-shipinshujucunchu" unicode="&#58968;" d="M874.666667-128a170.666667 170.666667 0 1 0 170.666666 170.666667 170.666667 170.666667 0 0 0-170.666666-170.666667z m-0.277334 277.056a106.666667 106.666667 0 1 1 106.666667-106.666667 106.666667 106.666667 0 0 1-106.666667 106.666667z m-0.149333-152.426667a21.333333 21.333333 0 0 0-32 18.517334v61.205333a21.333333 21.333333 0 0 0 32 18.517333l53.610667-30.592a21.333333 21.333333 0 0 0 0-37.056zM874.666667 277.333333a233.472 233.472 0 0 1-134.677334-42.666666H42.666667a42.666667 42.666667 0 0 0-42.666667 42.666666V490.666667a42.666667 42.666667 0 0 0 42.666667 42.666666h853.333333a42.666667 42.666667 0 0 0 42.666667-42.666666v-213.333334a43.072 43.072 0 0 0-0.938667-8.832A233.877333 233.877333 0 0 1 874.666667 277.333333z m0 149.333334a42.666667 42.666667 0 0 1-42.666667 42.666666H106.666667a42.666667 42.666667 0 0 1-42.666667-42.666666v-85.333334a42.666667 42.666667 0 0 1 42.666667-42.666666h725.333333a42.666667 42.666667 0 0 1 42.666667 42.666666v85.333334z m-128-85.333334a42.666667 42.666667 0 1 0 42.666666 42.666667 42.666667 42.666667 0 0 0-42.666666-42.666667z m-320 21.333334H170.666667a21.333333 21.333333 0 0 0 0 42.666666h256a21.333333 21.333333 0 0 0 0-42.666666z m469.333333 234.666666H42.666667a42.666667 42.666667 0 0 0-42.666667 42.666667V853.333333a42.666667 42.666667 0 0 0 42.666667 42.666667h853.333333a42.666667 42.666667 0 0 0 42.666667-42.666667v-213.333333a42.666667 42.666667 0 0 0-42.666667-42.666667z m-21.333333 192a42.666667 42.666667 0 0 1-42.666667 42.666667H106.666667a42.666667 42.666667 0 0 1-42.666667-42.666667v-85.333333a42.666667 42.666667 0 0 1 42.666667-42.666667h725.333333a42.666667 42.666667 0 0 1 42.666667 42.666667V789.333333z m-128-85.333333a42.666667 42.666667 0 1 0 42.666666 42.666667 42.666667 42.666667 0 0 0-42.666666-42.666667zM426.666667 725.333333H170.666667a21.333333 21.333333 0 0 0 0 42.666667h256a21.333333 21.333333 0 0 0 0-42.666667zM170.666667 0a21.333333 21.333333 0 0 0 0 42.666667h256a21.333333 21.333333 0 0 0 0-42.666667H170.666667z m-128 170.666667h635.456a233.514667 233.514667 0 0 1-29.056-64H106.666667a42.666667 42.666667 0 0 1-42.666667-42.666667v-85.333333a42.666667 42.666667 0 0 1 42.666667-42.666667h559.146666a235.370667 235.370667 0 0 1 48.128-64H42.666667a42.666667 42.666667 0 0 0-42.666667 42.666667V128a42.666667 42.666667 0 0 0 42.666667 42.666667z"  horiz-adv-x="1045" />

    
    <glyph glyph-name="daohang-shipinyulan" unicode="&#58969;" d="M960-128H64a64 64 0 0 0-64 64V832a64 64 0 0 0 64 64h896a64 64 0 0 0 64-64v-896a64 64 0 0 0-64-64zM64 768v-128h169.450667l-110.506667 191.488A63.786667 63.786667 0 0 1 64 768z m132.501333 64l110.805334-192h132.437333l-110.933333 192H196.416z m206.229334 0l110.933333-192h132.266667l-110.933334 192h-132.266666z m206.144 0l110.933333-192h132.416l-110.933333 192H608.853333zM960 768a64 64 0 0 1-64 64h-80.853333l110.933333-192H960V768z m0-192H64v-576a64 64 0 0 1 64-64h768a64 64 0 0 1 64 64V576zM670.336 217.834667l-203.264-101.632A42.666667 42.666667 0 0 0 405.333333 154.368v203.264a42.666667 42.666667 0 0 0 61.738667 38.165333l203.264-101.632a42.666667 42.666667 0 0 0 0-76.330666z m-191.850667 96.448v-116.330667l131.029334 58.176z"  horiz-adv-x="1024" />

    
    <glyph glyph-name="shangchuan" unicode="&#58961;" d="M770.98666667 558.18666667C742.93333333 675.94666667 637.76 763.52 512 763.52s-230.93333333-87.57333333-258.98666667-205.22666667C128.53333333 535.57333333 34.13333333 426.24 34.13333333 294.72c0-137.6 103.36-250.98666667 236.37333334-266.13333333 16.10666667-1.81333333 30.4 10.56 30.4 26.88v1.6c0 14.08-10.77333333 25.38666667-24.64 26.98666666-104.96 12.26666667-186.56 101.86666667-186.56 210.66666667 0 117.12 94.50666667 212.05333333 211.2 212.05333333h0.53333333c0.74666667 13.54666667 2.66666667 26.66666667 5.76 39.36 0.42666667 1.6 0.74666667 3.09333333 1.17333333 4.69333334 0.96 3.52 1.92 6.93333333 2.98666667 10.34666666C338.77333333 646.18666667 418.13333333 707.62666667 512 707.62666667S685.22666667 646.18666667 712.64 561.06666667c1.06666667-3.41333333 2.13333333-6.82666667 2.98666667-10.34666667 0.42666667-1.6 0.74666667-3.09333333 1.17333333-4.69333333 3.09333333-12.69333333 5.01333333-25.92 5.76-39.36h0.53333333c116.58666667 0 211.2-94.93333333 211.2-212.05333334 0-108.8-81.49333333-198.4-186.56-210.66666666-13.86666667-1.6-24.64-12.90666667-24.64-26.98666667v-1.6c0-16.32 14.29333333-28.8 30.4-26.88C886.50666667 43.73333333000005 989.86666667 157.12 989.86666667 294.72c0 131.52-94.4 240.85333333-218.88 263.46666667zM535.66577778 424.17114075c-0.36408889 0.48545185-0.72817778 0.9709037-1.21362963 1.45635555-6.18951111 6.18951111-14.32082963 9.34494815-22.45214815 9.34494815-8.13131852 0-16.26263703-3.03407408-22.45214815-9.34494815-0.48545185-0.48545185-0.72817778-0.9709037-1.21362963-1.45635555l-150.49007407-151.21825186c-12.37902222-12.37902222-12.37902222-32.52527408 0-44.9042963s32.40391111-12.37902222 44.66157037 0L512 358.14968889l129.49428148-130.1010963c12.37902222-12.37902222 32.40391111-12.37902222 44.66157037 0s12.37902222 32.52527408 0 44.9042963l-150.49007407 151.21825186zM512 264.98844445c-16.384 0-29.58222222-13.312-29.58222222-29.80977778v-226.19022222c0-16.384 13.312-29.80977778 29.58222222-29.80977778 16.384 0 29.58222222 13.312 29.58222222 29.80977778V235.17866666999998c0 16.49777778-13.19822222 29.80977778-29.58222222 29.80977778z"  horiz-adv-x="1024" />

    
    <glyph glyph-name="wenjianjia1" unicode="&#58967;" d="M156.23375 751.055625h824.4721875c31.190625 0 56.47125-25.2815625 56.47125-56.4665625v-384c0-31.190625-25.2815625-56.4721875-56.47125-56.4721875H156.23375c-31.1859375 0-56.4675 25.2815625-56.4675 56.4721875v384c0 31.185 25.2815625 56.4721875 56.4675 56.4721875zM472.4721875 864c68.6109375 0 124.23375-55.621875 124.23375-124.23375v-79.055625h440.47125c68.611875 0 124.23375-55.6275 124.23375-124.2384375v-508.2384375c0-68.6109375-55.621875-124.23375-124.23375-124.23375H156.23375A124.23375 124.23375 0 0 0 32 28.233749999999986v508.2375c0 3.7828125 0.16875 7.565625 0.5090625 11.295A125.8659375 125.8659375 0 0 0 32 559.055625V739.76625C32 808.378125 87.621875 864 156.23375 864h316.2375z"  horiz-adv-x="1208" />

    
    <glyph glyph-name="wenjian" unicode="&#58966;" d="M832.9 460.3H631.3c-69.1 0-125.3 56.2-125.3 125.4V767.2c0 24.7 20 44.8 44.8 44.8s44.8-20.1 44.8-44.8v-181.5c0-19.7 16-35.8 35.8-35.8H833c24.7 0 44.8-20.1 44.8-44.8-0.1-24.7-20.1-44.8-44.9-44.8zM671.7 298.1H349.2c-24.7 0-44.8 20.1-44.8 44.8 0 24.7 20.1 44.8 44.8 44.8h322.5c24.7 0 44.8-20.1 44.8-44.8 0-24.7-20.1-44.8-44.8-44.8z m0-172.4H349.2c-24.7 0-44.8 20.1-44.8 44.8s20.1 44.8 44.8 44.8h322.5c24.7 0 44.8-20.1 44.8-44.8s-20.1-44.8-44.8-44.8zM793.2-63.700000000000045H227.7c-68.9 0-124.9 56-124.9 124.9v646c0 68.9 56 124.9 124.9 124.9h365.1c30.8 0 60.4-11.3 83.4-31.9l200.3-179.5c26.4-23.7 41.5-57.6 41.5-93v-466.5c0-68.9-56-124.9-124.8-124.9zM227.7 742.5c-19.5 0-35.3-15.8-35.3-35.3v-646.1c0-19.5 15.8-35.3 35.3-35.3h565.4c19.5 0 35.3 15.8 35.3 35.3V527.7c0 10-4.3 19.6-11.7 26.3L616.4 733.5c-6.5 5.8-14.9 9-23.6 9H227.7z"  horiz-adv-x="1024" />

    
    <glyph glyph-name="luping" unicode="&#58957;" d="M987.428571-6.095238H902.095238v-85.333333a36.571429 36.571429 0 0 0-73.142857 0V-6.095238H158.47619A36.571429 36.571429 0 0 0 121.904762 30.47619a35.669333 35.669333 0 0 0 2.438095 12.190477 35.693714 35.693714 0 0 0-2.438095 12.190476V700.952381H36.571429a36.571429 36.571429 0 0 0 0 73.142857H121.904762V859.428571a36.571429 36.571429 0 0 0 73.142857 0V774.095238h670.476191A36.571429 36.571429 0 0 0 902.095238 737.52381V67.047619h85.333333a36.571429 36.571429 0 0 0 0-73.142857zM195.047619 67.047619h633.904762V700.952381H195.047619v-633.904762z m457.898667 295.448381l-227.401143-120.734476a24.380952 24.380952 0 0 0-35.815619 21.528381v241.371428a24.380952 24.380952 0 0 0 35.815619 21.528381l227.401143-120.734476a24.380952 24.380952 0 0 0 0-42.959238z"  horiz-adv-x="1024" />

    
    <glyph glyph-name="cuo" unicode="&#58964;" d="M512 896a512 512 0 1 1 512-512A512 512 0 0 1 512 896z m181.007-647.82a32.004 32.004 0 0 0-45.252-45.252l-135.558 135.69-136.542-136.543a32.2 32.2 0 1 0-45.58 45.58l136.542 136.542L331.06 519.755a32.004 32.004 0 1 0 45.251 45.252L511.87 429.448 649.59 567.171a32.2 32.2 0 0 0 45.58-45.58L557.448 383.87z"  horiz-adv-x="1024" />

    
    <glyph glyph-name="dui" unicode="&#58965;" d="M512.01-114.33000000000004c-274.852 0-498.488 223.56-498.488 498.325 0 274.77 223.642 498.335 498.488 498.335 274.842 0 498.468-223.565 498.468-498.335 0-274.765-223.626-498.325-498.468-498.325z m289.06 690.304c-13.931 13.82-45.947 21.376-59.766 7.358L442.22 284.33399999999995 282.706 443.796c-13.737 14.127-42.43 2.043-56.443-11.668-14.116-13.732-14.403-36.306-0.686-50.324l190.039-193.895c0.102-0.092 0.195-0.092 0.297-0.19 0.097-0.091 0.097-0.199 0.195-0.291 2.237-2.232 5.058-3.61 7.69-5.069 1.362-0.778 2.529-1.94 3.891-2.53a35.789 35.789 0 0 1 13.445-2.63c4.475 0 9.052 0.89 13.333 2.63 1.372 0.59 2.432 1.752 3.804 2.443 2.626 1.47 5.447 2.821 7.69 5.059 0.097 0.102 0.097 0.189 0.195 0.302 0.097 0.092 0.184 0.092 0.291 0.19l334.905 337.924c13.834 13.916 13.64 36.403-0.282 50.227z m0 0"  horiz-adv-x="1024" />

    
    <glyph glyph-name="zu18" unicode="&#58962;" d="M661.615272 67.393034c365.398085 0 661.615272-43.72074 661.615271-97.654414s-296.217186-97.654414-661.615271-97.654414-661.615272 43.72074-661.615272 97.654414 296.223201 97.654414 661.615272 97.654414zM136.533333 871.941263m30.073422 0l992.422907 0q30.073421 0 30.073422-30.073422l0-649.585903q0-30.073421-30.073422-30.073421l-992.422907 0q-30.073421 0-30.073422 30.073421l0 649.585903q0 30.073421 30.073422 30.073422ZM1183.088399 138.14978h-500.072881a23.613651 23.613651 0 0 0 0.854086-6.014685v-108.264317a23.655753 23.655753 0 0 0-0.854086-6.014684h232.419431a18.044053 18.044053 0 0 0 0-36.088106h-505.233481a18.044053 18.044053 0 0 0 0 36.088106h226.398732a23.920399 23.920399 0 0 0-0.848071 6.014684v108.264317a23.884311 23.884311 0 0 0 0.848071 6.014685H142.548018a30.073421 30.073421 0 0 0-30.073422 30.073421V865.926579a30.073421 30.073421 0 0 0 30.073422 30.073421h1040.540381a30.073421 30.073421 0 0 0 30.073422-30.073421v-697.703378a30.073421 30.073421 0 0 0-30.073422-30.073421z m6.014685 703.718061a30.073421 30.073421 0 0 1-30.073422 30.073422h-992.422907a30.073421 30.073421 0 0 1-30.073422-30.073422v-649.585903a30.073421 30.073421 0 0 1 30.073422-30.073421h992.422907a30.073421 30.073421 0 0 1 30.073422 30.073421V841.867841zM719.957709 679.471366a36.088106 36.088106 0 1 0-36.088105-36.088106 36.088106 36.088106 0 0 0 36.088105 36.088106z m-198.484581-120.293686a36.088106 36.088106 0 1 0-36.088106-36.088106 36.088106 36.088106 0 0 0 36.088106 36.088106z m282.690161-114.279002a36.088106 36.088106 0 1 0-36.088105-36.088105 36.088106 36.088106 0 0 0 36.088105 36.088105zM897.432999 511.108323H555.480153a36.039988 36.039988 0 0 0-68.01405 0h-59.262684a12.486485 12.486485 0 0 0 0 23.944458h59.256669a36.039988 36.039988 0 0 0 68.026079 0h341.946832a12.486485 12.486485 0 0 0 0-23.944458z m-375.959871 36.791824A24.810573 24.810573 0 1 1 546.2837 523.089574a24.810573 24.810573 0 0 1-24.810572 24.810573z m375.959871 83.501862h-143.468265a36.039988 36.039988 0 0 0-68.01405 0H428.203419a12.486485 12.486485 0 0 0 0 23.944458h257.741251a36.039988 36.039988 0 0 0 68.026079 0h143.46225a12.486485 12.486485 0 0 0 0-23.944458z m-177.47529 36.791824A24.810573 24.810573 0 1 1 744.768282 643.38326a24.810573 24.810573 0 0 1-24.810573 24.810573zM428.203419 420.77378h341.946831a36.039988 36.039988 0 0 0 68.026079 0h59.25667a12.486485 12.486485 0 0 0 0-23.944458h-59.262685a36.039988 36.039988 0 0 0-68.01405 0H428.203419a12.486485 12.486485 0 0 0 0 23.944458z m375.95987-36.77378A24.810573 24.810573 0 1 1 779.352717 408.810573a24.810573 24.810573 0 0 1 24.810572-24.810573z"  horiz-adv-x="1323" />

    
    <glyph glyph-name="zu19" unicode="&#58963;" d="M669.741824 101.023504c369.908985 0 669.741824-51.245824 669.741825-114.462402s-299.83284-114.462403-669.741825-114.462403-669.741824 51.245824-669.741824 114.462403 299.83284 114.462403 669.741824 114.462402zM1168.17074 233.30809a35.24957 35.24957 0 0 0 35.24957-35.24957v-190.347677a35.24957 35.24957 0 0 0-35.24957-35.249569h-972.888124a35.24957 35.24957 0 0 0-35.24957 35.249569V198.05852a35.24957 35.24957 0 0 0 35.24957 35.24957h176.247849V303.807229h-176.247849a35.24957 35.24957 0 0 0-35.24957 35.24957V529.404475a35.24957 35.24957 0 0 0 35.24957 35.24957h176.247849V635.153184h-176.247849a35.24957 35.24957 0 0 0-35.24957 35.24957V860.75043a35.24957 35.24957 0 0 0 35.24957 35.24957h972.888124a35.24957 35.24957 0 0 0 35.24957-35.24957v-190.347676a35.24957 35.24957 0 0 0-35.24957-35.24957h-176.247848v-70.499139h176.247848a35.24957 35.24957 0 0 0 35.24957-35.24957v-190.347676a35.24957 35.24957 0 0 0-35.24957-35.24957h-176.247848v-70.499139h176.247848z m-944.688468-28.199656a35.24957 35.24957 0 0 1-35.24957-35.24957v-133.948365a35.24957 35.24957 0 0 1 35.24957-35.24957h916.488812a35.24957 35.24957 0 0 1 35.24957 35.24957v133.948365a35.24957 35.24957 0 0 1-35.24957 35.24957h-916.488812z m204.447504 126.898451h507.593804V536.454389h-507.593804v-204.447504z m-204.447504 204.447504a35.24957 35.24957 0 0 1-35.24957-35.24957v-133.948365a35.24957 35.24957 0 0 1 35.24957-35.249569h148.048193V536.454389h-148.048193z m951.738382 162.148021V832.550775a35.24957 35.24957 0 0 1-35.24957 35.249569h-916.488812a35.24957 35.24957 0 0 1-35.24957-35.249569v-133.948365a35.24957 35.24957 0 0 1 35.24957-35.24957h916.488812a35.24957 35.24957 0 0 1 35.24957 35.24957z m-239.697074-63.449226h-507.593804v-70.499139h507.593804V635.153184z m204.447504-303.146299a35.24957 35.24957 0 0 1 35.24957 35.249569V501.204819a35.24957 35.24957 0 0 1-35.24957 35.24957h-148.048192v-204.447504h148.048192z m-204.447504-28.199656h-507.593804v-70.499139h507.593804V303.807229zM188.232702 867.800344m35.24957 0l916.488812 0q35.24957 0 35.24957-35.249569l0-133.948365q0-35.24957-35.24957-35.24957l-916.488812 0q-35.24957 0-35.24957 35.24957l0 133.948365q0 35.24957 35.24957 35.249569ZM188.232702 536.454389m35.24957 0l916.488812 0q35.24957 0 35.24957-35.24957l0-133.948365q0-35.24957-35.24957-35.249569l-916.488812 0q-35.24957 0-35.24957 35.249569l0 133.948365q0 35.24957 35.24957 35.24957ZM188.232702 205.108434m35.24957 0l916.488812 0q35.24957 0 35.24957-35.24957l0-133.948365q0-35.24957-35.24957-35.24957l-916.488812 0q-35.24957 0-35.24957 35.24957l0 133.948365q0 35.24957 35.24957 35.24957ZM1006.022719 793.776248h7.049914a24.674699 24.674699 0 0 0 24.674699-24.674699v-7.049914a24.674699 24.674699 0 0 0-24.674699-24.674699h-7.049914a24.674699 24.674699 0 0 0-24.674698 24.674699v7.049914a24.674699 24.674699 0 0 0 24.674698 24.674699z m0-331.345955h7.049914a24.674699 24.674699 0 0 0 24.674699-24.674699v-7.049914a24.674699 24.674699 0 0 0-24.674699-24.674699h-7.049914a24.674699 24.674699 0 0 0-24.674698 24.674699v7.049914a24.674699 24.674699 0 0 0 24.674698 24.674699z m-0.563993-330.817212h8.107401a24.674699 24.674699 0 0 0 24.674699-24.674699v-8.107401a24.674699 24.674699 0 0 0-24.674699-24.674699h-8.107401a24.674699 24.674699 0 0 0-24.674698 24.674699v8.107401a24.674699 24.674699 0 0 0 24.674698 24.674699zM353.90568 790.251291h486.444062a24.674699 24.674699 0 0 0 0-49.349398h-486.444062a24.674699 24.674699 0 0 0 0 49.349398z m0-331.345955h486.444062a24.674699 24.674699 0 0 0 0-49.349398h-486.444062a24.674699 24.674699 0 0 0 0 49.349398z m0-331.345956h486.444062a24.674699 24.674699 0 0 0 0-49.349397h-486.444062a24.674699 24.674699 0 0 0 0 49.349397z"  horiz-adv-x="1339" />

    
    <glyph glyph-name="jiankong" unicode="&#58960;" d="M650.748897 109.605175L748.861794-51.229346h82.989077a38.385327 38.385327 0 0 0 0-76.770654H191.967466a38.385327 38.385327 0 0 0 0 76.770654h82.989078l98.112896 160.834521a405.451416 405.451416 0 1 0 277.679457 0zM363.729011-51.229346h296.488267l-86.136674 141.181234a372.056182 372.056182 0 0 0-124.214919 0z m148.244133 872.472898A327.35007 327.35007 0 1 1 839.169673 493.842301 327.35007 327.35007 0 0 1 511.973144 821.243552z m0-542.998839a179.131527 179.131527 0 1 0 179.131527 179.131527 179.131527 179.131527 0 0 0-179.131527-179.131527z m0 281.492399a102.360873 102.360873 0 1 1 102.360873-102.360872 102.360873 102.360873 0 0 1-102.360873 102.360872z m0 131.149868a38.385327 38.385327 0 1 0 38.385327 38.385328 38.385327 38.385327 0 0 0-38.385327-38.385328z"  horiz-adv-x="1024" />

    
    <glyph glyph-name="jiufenping" unicode="&#58945;" d="M0-128V896h1024v-1024H0zM947.2 819.2H76.8v-870.4h870.4V819.2zM358.4 537.6H153.6V742.4h204.8v-204.8z m0-256H153.6v204.8h204.8v-204.8z m0-256H153.6v204.8h204.8v-204.8z m256 512h-204.8V742.4h204.8v-204.8z m0-256h-204.8v204.8h204.8v-204.8z m0-256h-204.8v204.8h204.8v-204.8z m256 512h-204.8V742.4h204.8v-204.8z m0-256h-204.8v204.8h204.8v-204.8z m0-256h-204.8v204.8h204.8v-204.8z"  horiz-adv-x="1024" />

    
    <glyph glyph-name="huakuai" unicode="&#58946;" d="M506.026667-128L34.133333 213.333333V810.666667A79.394133 79.394133 0 0 0 105.813333 896h812.373334A79.394133 79.394133 0 0 0 989.866667 810.666667V213.333333zM887.227733 728.1664A61.44 61.44 0 0 1 830.941867 793.6H193.058133a61.44 61.44 0 0 1-56.285866-65.4336v-457.9328L507.323733 8.533333l379.904 261.700267V728.1664zM460.8 298.666667v341.333333a51.2 51.2 0 0 0 102.4 0v-341.333333a51.2 51.2 0 0 0-102.4 0z m273.066667 392.533333A51.2 51.2 0 0 0 785.066667 640v-238.933333a51.2 51.2 0 0 0-102.4 0v238.933333A51.2 51.2 0 0 0 733.866667 691.2z m-443.733334-341.333333A51.2 51.2 0 0 0 238.933333 401.066667v238.933333a51.2 51.2 0 0 0 102.4 0v-238.933333A51.2 51.2 0 0 0 290.133333 349.866667z"  horiz-adv-x="1024" />

    
    <glyph glyph-name="shiliufenping" unicode="&#58949;" d="M0-128V896h1024v-1024H0zM947.2 819.2H76.8v-870.4h870.4V819.2z m-665.6-204.8H128V768h153.6v-153.6z m0-204.8H128v153.6h153.6v-153.6z m0-204.8H128v153.6h153.6v-153.6z m0-204.8H128v153.6h153.6v-153.6z m204.8 614.4h-153.6V768h153.6v-153.6z m0-204.8h-153.6v153.6h153.6v-153.6z m0-204.8h-153.6v153.6h153.6v-153.6z m0-204.8h-153.6v153.6h153.6v-153.6z m204.8 614.4h-153.6V768h153.6v-153.6z m0-204.8h-153.6v153.6h153.6v-153.6z m0-204.8h-153.6v153.6h153.6v-153.6z m0-204.8h-153.6v153.6h153.6v-153.6z m204.8 614.4h-153.6V768h153.6v-153.6z m0-204.8h-153.6v153.6h153.6v-153.6z m0-204.8h-153.6v153.6h153.6v-153.6z m0-204.8h-153.6v153.6h153.6v-153.6z"  horiz-adv-x="1024" />

    
    <glyph glyph-name="jietu" unicode="&#58950;" d="M1091.368421 6.736842H997.052632v-94.315789a40.421053 40.421053 0 0 0-80.842106 0V6.736842H175.157895A40.421053 40.421053 0 0 0 134.736842 47.157895V680.421053H40.421053a40.421053 40.421053 0 0 0 0 80.842105H134.736842V855.578947a40.421053 40.421053 0 0 0 80.842105 0V761.263158h741.052632A40.421053 40.421053 0 0 0 997.052632 720.842105V87.578947h94.315789a40.421053 40.421053 0 0 0 0-80.842105zM916.210526 680.421053H215.578947v-592.842106h700.631579V680.421053zM616.016842 303.157895L754.526316 491.789474l80.842105-323.368421H296.421053l134.736842 242.526315zM404.210526 491.789474a53.894737 53.894737 0 1 0 53.894737 53.894737 53.894737 53.894737 0 0 0-53.894737-53.894737z"  horiz-adv-x="1131" />

    
    <glyph glyph-name="quanping1" unicode="&#58951;" d="M742.4-128v76.8h204.8v204.8h76.8v-281.6H742.4z m204.8 947.2h-204.8V896h281.6v-281.6h-76.8V819.2zM76.8 614.4H0V896h281.6v-76.8H76.8v-204.8z m76.8 128h716.8v-716.8H153.6V742.4z m76.8-640h563.2V665.6H230.4v-563.2z m-153.6-153.6h204.8v-76.8H0V153.6h76.8v-204.8z"  horiz-adv-x="1024" />

    
    <glyph glyph-name="wenjianjia" unicode="&#58953;" d="M1220.501556 575.194277a54.290116 54.290116 0 0 1-41.49316 20.940473h-62.045847V761.331817a38.778654 38.778654 0 0 1-41.49316 41.493159H382.882626L330.919229 875.34106C320.836779 895.893746 310.366542 895.893746 289.813856 895.893746H51.712919A48.473318 48.473318 0 0 1 0.137309 844.318136v-920.60525a48.085531 48.085531 0 0 1 51.57561-51.57561h930.6877c20.940473 0 31.022923 10.470237 41.49316 31.022924l217.160463 620.458466a79.496241 79.496241 0 0 1-20.552686 51.575611zM93.206079 792.35474h155.114617l51.57561-72.128297c10.470237-10.470237 10.470237-20.940473 41.49316-20.940473h682.504313v-103.15122h-775.573083a56.616835 56.616835 0 0 1-51.57561-31.022924l-103.539007-310.229233zM930.825009-24.323717H103.676316l175.667303 527.389697h837.61893z"  horiz-adv-x="1241" />

    
    <glyph glyph-name="danping" unicode="&#58954;" d="M0-128V896h1024v-1024H0zM947.2 819.2H76.8v-870.4h870.4V819.2z m-76.8-793.6H153.6V742.4h716.8v-716.8z"  horiz-adv-x="1024" />

    
    <glyph glyph-name="xiazai" unicode="&#58955;" d="M1036.821645 341.550478a60.989447 60.989447 0 0 1-60.989447-60.989447v-287.96722H121.979934v288.660282a60.989447 60.989447 0 0 1-121.978894 0v-348.263606a60.642916 60.642916 0 0 1 60.989447-60.989447H1036.128583a60.642916 60.642916 0 0 1 60.989448 60.989447v346.530951A59.949855 59.949855 0 0 1 1036.821645 341.550478z m-511.826215-201.334482a30.148193 30.148193 0 0 1 24.603698-12.128584 29.1086 29.1086 0 0 1 23.564105 12.128584l199.601827 274.452513a28.415538 28.415538 0 0 1 2.425717 31.187786 29.801662 29.801662 0 0 1-26.682883 15.940423h-129.602576V826.69381a69.30619 69.30619 0 1 1-138.61238 0v-364.20403H349.9973a29.801662 29.801662 0 0 1-26.682883-16.286954 29.1086 29.1086 0 0 1 2.079186-30.841255z"  horiz-adv-x="1097" />

    
    <glyph glyph-name="quanbuguanbi" unicode="&#58956;" d="M1329.923586 163.413212l-110.428519 110.428519a1059.714645 1059.714645 0 0 1 184.7682 154.25068S1147.857891 714.433229 831.540054 714.433229c-16.92184 0-33.635795-0.873117-50.141865-2.49462l-113.920987 113.920987A796.490641 796.490641 0 0 0 831.540054 843.862439c459.259572 0 831.540054-415.770027 831.540055-415.770028a1551.695319 1551.695319 0 0 0-333.156523-264.679199zM421.00873 895.958423l940.76284-940.762841-83.154005-83.154005-184.102968 184.102968A855.654716 855.654716 0 0 0 831.540054 12.322384c-459.259572 0-831.540054 415.770027-831.540054 415.770027a1543.047302 1543.047302 0 0 0 414.023793 308.501361L337.854724 812.804418zM258.816842 428.092411S515.222218 141.751594 831.540054 141.751594a577.33826 577.33826 0 0 1 154.915913 22.451581l-96.375493 96.333915a176.369646 176.369646 0 0 0-226.095741 226.095741l-142.442811 142.442812a1066.616428 1066.616428 0 0 1-262.72508-200.983232z"  horiz-adv-x="1663" />

    
    <glyph glyph-name="sifenping" unicode="&#58959;" d="M0-128V896h1024v-1024H0zM947.2 819.2H76.8v-870.4h870.4V819.2zM486.4 409.6H153.6V742.4h332.8v-332.8z m0-384H153.6V358.4h332.8v-332.8z m384 384H537.6V742.4h332.8v-332.8z m0-384H537.6V358.4h332.8v-332.8z"  horiz-adv-x="1024" />

    
    <glyph glyph-name="shipinyulan" unicode="&#58944;" d="M0 896m79.277419 0l951.329033 0q79.277419 0 79.277419-79.277419l0-845.625807q0-79.277419-79.277419-79.277419l-951.329033 0q-79.277419 0-79.277419 79.277419l0 845.625807q0 79.277419 79.277419 79.277419ZM984.599123 658.167742l-63.739046 237.832258H1030.606452a79.277419 79.277419 0 0 0 79.277419-79.277419v-158.554839h-125.284748z m-82.078555 0h-155.753703l-63.739046 237.832258h155.753704zM445.195561 896h155.753704l63.739045-237.832258h-155.753704z m-237.832258 0h155.753703l63.739046-237.832258h-155.753704zM0 816.722581a79.277419 79.277419 0 0 0 79.277419 79.277419h46.007329l63.739046-237.832258H0V816.722581zM675.602168 318.543277a52.851613 52.851613 0 0 0 0-87.205161l-169.997213-116.881342A52.851613 52.851613 0 0 0 422.812903 158.112206v233.762684a52.851613 52.851613 0 0 0 82.792052 43.549729z"  horiz-adv-x="1131" />

    
    <glyph glyph-name="shipinshujucunchu" unicode="&#58943;" d="M48.761905 310.857143h877.714285a48.761905 48.761905 0 0 0 48.761905-48.761905v-292.571428a48.761905 48.761905 0 0 0-48.761905-48.761905H48.761905a48.761905 48.761905 0 0 0-48.761905 48.761905V262.095238a48.761905 48.761905 0 0 0 48.761905 48.761905z m0-24.380953h877.714285a24.380952 24.380952 0 0 0 24.380953-24.380952v-292.571428a24.380952 24.380952 0 0 0-24.380953-24.380953H48.761905a24.380952 24.380952 0 0 0-24.380953 24.380953V262.095238a24.380952 24.380952 0 0 0 24.380953 24.380952z m121.904762 73.142858h633.904762v-48.761905H170.666667v48.761905z m0 292.571428h633.904762v-48.761905H170.666667v48.761905zM48.761905 896h877.714285a48.761905 48.761905 0 0 0 48.761905-48.761905v-146.285714a48.761905 48.761905 0 0 0-48.761905-48.761905H48.761905a48.761905 48.761905 0 0 0-48.761905 48.761905V847.238095a48.761905 48.761905 0 0 0 48.761905 48.761905z m0-24.380952h877.714285a24.380952 24.380952 0 0 0 24.380953-24.380953v-146.285714a24.380952 24.380952 0 0 0-24.380953-24.380952H48.761905a24.380952 24.380952 0 0 0-24.380953 24.380952V847.238095a24.380952 24.380952 0 0 0 24.380953 24.380953z m0-268.190477h877.714285a48.761905 48.761905 0 0 0 48.761905-48.761904v-146.285715a48.761905 48.761905 0 0 0-48.761905-48.761904H48.761905a48.761905 48.761905 0 0 0-48.761905 48.761904v146.285715a48.761905 48.761905 0 0 0 48.761905 48.761904z m0-24.380952h877.714285a24.380952 24.380952 0 0 0 24.380953-24.380952v-146.285715a24.380952 24.380952 0 0 0-24.380953-24.380952H48.761905a24.380952 24.380952 0 0 0-24.380953 24.380952v146.285715a24.380952 24.380952 0 0 0 24.380953 24.380952zM48.761905 871.619048h877.714285a24.380952 24.380952 0 0 0 24.380953-24.380953v-146.285714a24.380952 24.380952 0 0 0-24.380953-24.380952H48.761905a24.380952 24.380952 0 0 0-24.380953 24.380952V847.238095a24.380952 24.380952 0 0 0 24.380953 24.380953z m0-292.571429h877.714285a24.380952 24.380952 0 0 0 24.380953-24.380952v-146.285715a24.380952 24.380952 0 0 0-24.380953-24.380952H48.761905a24.380952 24.380952 0 0 0-24.380953 24.380952v146.285715a24.380952 24.380952 0 0 0 24.380953 24.380952z m0-292.571429h877.714285a24.380952 24.380952 0 0 0 24.380953-24.380952v-292.571428a24.380952 24.380952 0 0 0-24.380953-24.380953H48.761905a24.380952 24.380952 0 0 0-24.380953 24.380953V262.095238a24.380952 24.380952 0 0 0 24.380953 24.380952zM121.904762 505.904762m24.380952 0l268.190476 0q24.380952 0 24.380953-24.380952l0 0q0-24.380952-24.380953-24.380953l-268.190476 0q-24.380952 0-24.380952 24.380953l0 0q0 24.380952 24.380952 24.380952ZM816.761905 798.47619A36.571429 36.571429 0 1 0 780.190476 761.904762 36.571429 36.571429 0 0 0 816.761905 798.47619zM804.571429 530.285714a48.761905 48.761905 0 1 0-48.761905-48.761904 48.761905 48.761905 0 0 0 48.761905 48.761904z m0-24.380952a24.380952 24.380952 0 1 0-24.380953-24.380952 24.380952 24.380952 0 0 0 24.380953 24.380952zM134.095238 213.333333a12.190476 12.190476 0 0 0 12.190476-12.190476v-170.666667a12.190476 12.190476 0 0 0-24.380952 0v170.666667a12.190476 12.190476 0 0 0 12.190476 12.190476z m73.142857 0a12.190476 12.190476 0 0 0 12.190476-12.190476v-170.666667a12.190476 12.190476 0 0 0-24.380952 0v170.666667a12.190476 12.190476 0 0 0 12.190476 12.190476z m73.142857 0a12.190476 12.190476 0 0 0 12.190477-12.190476v-170.666667a12.190476 12.190476 0 0 0-24.380953 0v170.666667a12.190476 12.190476 0 0 0 12.190476 12.190476z m73.142858 0a12.190476 12.190476 0 0 0 12.190476-12.190476v-170.666667a12.190476 12.190476 0 0 0-24.380953 0v170.666667a12.190476 12.190476 0 0 0 12.190477 12.190476z m73.142857 0a12.190476 12.190476 0 0 0 12.190476-12.190476v-170.666667a12.190476 12.190476 0 0 0-24.380953 0v170.666667a12.190476 12.190476 0 0 0 12.190477 12.190476z m414.47619 24.380953a182.857143 182.857143 0 1 0-182.857143-182.857143 182.857143 182.857143 0 0 0 182.857143 182.857143zM915.577905 60.318476a6.119619 6.119619 0 0 0 0-10.922666l-102.180572-51.078096A6.095238 6.095238 0 0 0 804.571429 3.657143v102.15619a6.095238 6.095238 0 0 0 8.825904 5.461334z"  horiz-adv-x="1024" />

    
    <glyph glyph-name="shipinguanlifuwu" unicode="&#58942;" d="M896-128H128a128 128 0 0 0-128 128V640h1024v-640a128 128 0 0 0-128-128z m-242.496 441.216L476.608 401.664A64 64 0 0 1 384 344.448v-176.896a64 64 0 0 1 92.608-57.216l176.896 88.448a64 64 0 0 1 0 114.432zM864 896h32a128 128 0 0 0 128-128v-64h-49.152z m-123.84-192L629.312 896h160.768l110.848-192h-160.768zM505.6 704L394.752 896H555.52l110.848-192H505.6zM270.912 704L160 896h160.768l110.848-192H270.848zM0 704V768A127.552 127.552 0 0 0 89.6 889.6L196.736 704H0z"  horiz-adv-x="1024" />

    
    <glyph glyph-name="bianji" unicode="&#58940;" d="M896.23583984 610.0079956l-158.203125 158.203125s-33.89007568 16.95739747-45.21148681 0L240.80523682 316.19512940000004 116.4921875 5.449584960000038S116.4921875-11.5078125 133.44958496-11.5078125l310.74554444 118.65234375 452.0159912 452.01599122c11.2966919 5.66070557 16.95739747 33.89007568 0 50.84747313zM195.61846924 73.25445557l79.1015625 180.79650878v-5.66070556l107.35565185-107.35565186h5.66070557c-5.66070557 0-180.79650879-73.44085693-192.09320068-67.8048706 0-5.66070557 0 0 0 0z"  horiz-adv-x="1024" />

    
    <glyph glyph-name="bianji-16" unicode="&#58941;" d="M611.50574875 651.1995163l-437.14427949-435.98556519c-16.9172287-17.14897156-24.25575257-40.63224791-21.93832397-63.26580048l-31.9032669-112.78152466c-12.90035248-40.16876221 6.02531433-54.3050766 44.80361939-49.90196227l119.27032471 33.13922882c1.23596192-0.07724763 2.54917146-0.07724763 3.86238097-0.07724762 20.4706192 0 40.16876221 8.11100006 54.61406707 22.63355255l437.29877473 435.98556518-168.86329651 170.25375367z m273.61106873 44.41738128l-59.48066712 60.09864807c-14.52255249 14.52255249-34.14344787 22.63355255-54.69131469 22.63355256-20.4706192 0-40.16876221-8.11100006-54.61406709-22.63355256l-54.53681945-55.15480041 168.78604889-170.33100129 54.53681945 55.15480043c29.81758117 30.04932404 29.81758117 80.33752442 0 110.2323532z m-5.8708191-657.68623352h-423.62594604l-56.54525756-49.43847656h508.44383239v49.43847656z"  horiz-adv-x="1024" />

    
    <glyph glyph-name="guanbi" unicode="&#58921;" d="M788.51171684 50.606998439999984L178.60622597 660.5109443599999c-15.80022812 15.80022812-15.80022812 41.08105659 0 56.8820572s41.08182908 15.80022812 56.88205719 0l609.90549087-609.90549088c15.80022812-15.80022812 15.80022812-41.08105659 0-56.88205719s-41.08182908-15.80022812-56.88205719 0zM178.60699844 107.48828316000004L788.51094436 717.39377403c15.80022812 15.80022812 41.08105659 15.80022812 56.8820572 0s15.80022812-41.08182908 0-56.88205719L235.48828316 50.60622596999997c-15.80022812-15.80022812-41.08105659-15.80022812-56.88205719 0s-15.80022812 41.08182908 0 56.88205719z"  horiz-adv-x="1024" />

    
    <glyph glyph-name="duihao" unicode="&#58939;" d="M226.31976318 445.30371094c-27.09228516 27.02662468-68.7526989 24.38939094-93.07642937-5.66920281-24.25806999-30.1899147-21.88425064-76.46432876 5.273695-103.42529297L403.37439727 73.13085937000005c27.55422593-27.42213249 70.00488281-24.25806999 94.06442644 6.9870472l394.25640105 512.71021843c23.66403579 30.78317642 20.43431282 76.99270249-7.25123406 103.29319954-27.68554688 26.23560906-69.28030014 22.61037827-92.94433594-8.10791016l-350.48635481-455.82275391-214.69430925 213.11305047z"  horiz-adv-x="1024" />

    
    <glyph glyph-name="queshenghua-tongguo" unicode="&#58937;" d="M223.179951 122.964862A98.177273 98.177273 0 0 1 253.454144 140.163536c-8.14674-1.719867-43.155094-8.671752-59.448575-11.903293A303.438922 303.438922 0 0 0 167.460773 135.637569a224.315969 224.315969 0 0 0-44.033131 20.520734c36.782533 9.051934 44.354475 15.904248 53.085065 20.212968-8.287045-1.747023-52.279443-6.186997-71.962873-8.124111a385.730051 385.730051 0 0 0-31.998585 25.046701L131.253039 208.053039l-71.125569-3.552884A511.357313 511.357313 0 0 0 0 271.416575a295.857927 295.857927 0 0 0 77.84663 28.27824c11.880663-9.459271 30.713211-24.485481 35.302541-28.27824-5.123394 11.084093-12.156747 23.385671-17.017635 31.550515a314.962033 314.962033 0 0 0 98.829012-1.670082l24.585052-42.580296-4.07337 38.420932a331.644747 331.644747 0 0 0 91.062453-35.2256L307.765746 122.059669a319.112345 319.112345 0 0 0-84.585795 0.905193zM144.830939 298.572376a249.475819 249.475819 0 0 0-37.841609 63.816132c26.934029-8.893525 63.843288-16.610298 55.940951-14.030497-7.422586 2.425918-43.254665 22.036933-63.295647 33.134603a428.025211 428.025211 0 0 0-13.781569 48.37806L140.304972 411.721547l-59.670347 44.75276A569.497883 569.497883 0 0 0 72.41547 556.552486a289.625671 289.625671 0 0 0 98.181799-20.69272C174.607275 520.702303 181.038674 495.361414 181.038674 488.662983c0-8.051695 3.095761 28.13341 4.16389 40.887585A310.21882 310.21882 0 0 0 253.454144 485.675845V434.351381l16.29348 36.705591A326.123067 326.123067 0 0 0 330.39558 393.61768v-239.876244s-108.41501 52.854241-185.564641 144.83094zM796.570166 19.030559c276.717613 0 501.02453-32.899253 501.02453-73.483598s-224.306917-73.483598-501.02453-73.483597S295.545635-95.037383 295.545635-54.453039s224.320495 73.483598 501.024531 73.483598zM704.014144 256.372261h180.495558l47.522652-292.99299h-275.495603zM711.074652 244.898935h166.374541l43.7661-270.05539h-253.906741zM289.661878 760.220994m27.155802 0l959.504972 0q27.155801 0 27.155801-27.155801l0-611.005524q0-27.155801-27.155801-27.155802l-959.504972 0q-27.155801 0-27.155802 27.155802l0 611.005524q0 27.155801 27.155802 27.155801ZM330.354846 744.592831H1260.029171a27.155801 27.155801 0 0 0 27.155801-27.155801v-578.418564a27.155801 27.155801 0 0 0-27.155801-27.155801H330.354846a27.155801 27.155801 0 0 0-27.155801 27.155801v578.418564a27.155801 27.155801 0 0 0 27.155801 27.155801zM331.75337 744.597357h929.180995a27.155801 27.155801 0 0 0 27.155801-27.155801V256.933481H304.597569V717.441556a27.155801 27.155801 0 0 0 27.155801 27.155801zM796.00442 181.530873m-24.191293 0a24.191293 24.191293 0 1 1 48.382586 0 24.191293 24.191293 0 1 1-48.382586 0ZM294.156164 257.779836h1000.238674V244.260773h-1000.238674v13.496434zM919.631204 439.723704a24.173189 24.173189 0 0 0-24.168663-24.182241h-202.310718a24.173189 24.173189 0 0 0-24.168663 24.182241V561.825238a24.091722 24.091722 0 0 0 7.105768 17.117206l-0.678895 0.425441h1.176752a24.091722 24.091722 0 0 0 16.565038 6.639593h202.310718a24.091722 24.091722 0 0 0 16.565039-6.639593h1.176751l-0.678895-0.402811a24.118877 24.118877 0 0 0 7.105768-17.139836v-122.101534z m-131.388817 67.097458l-99.70705 64.105795a24.105299 24.105299 0 0 1-9.54979-19.131262V449.739669a24.177715 24.177715 0 0 1 24.168663-24.186767h182.305945a24.177715 24.177715 0 0 1 24.168663 24.186767V551.795695a24.118877 24.118877 0 0 1-10.138166 19.611014zM1289.900552 746.643094m-149.356906 0a149.356906 149.356906 0 1 1 298.713813 0 149.356906 149.356906 0 1 1-298.713813 0ZM1383.904884 795.2384l-94.502188-94.493136-16.655558-16.673662-16.655558 16.673662-44.490254 44.467624 16.700818 16.673662 44.444994-44.467624 94.502188 94.497662z"  horiz-adv-x="1439" />

    
    <glyph glyph-name="queshenghua-shibai" unicode="&#58938;" d="M223.25612 123.050513a98.21078 98.21078 0 0 1 30.284524 17.204544c-8.149521-1.720454-43.169822-8.674712-59.468863-11.907355a303.542482 303.542482 0 0 0-26.553855 7.379843 224.392525 224.392525 0 0 0-44.04816 20.527737c36.795086 9.055023 44.369613 15.909675 53.103183 20.219867-8.289874-1.747619-52.297285-6.189108-71.987433-8.126883a385.861696 385.861696 0 0 0-32.009507 25.055248L131.297834 208.167729l-71.149844-3.554096A511.531833 511.531833 0 0 0 0 271.552891a295.9589 295.9589 0 0 0 77.873198 28.287891c11.884718-9.462499 30.723693-24.493837 35.31459-28.287891-5.125143 11.087876-12.160896 23.393652-17.023444 31.561282a315.069526 315.069526 0 0 0 98.862742-1.670651l24.593442-42.594829-4.07476 38.434045a331.757933 331.757933 0 0 0 91.093531-35.237622l1.231484-139.900105a319.221254 319.221254 0 0 0-84.614663 0.905502zM144.880368 298.71796a249.560962 249.560962 0 0 0-37.854523 63.837912c26.943221-8.89656 63.865077-16.615967 55.960042-14.035286-7.425119 2.426746-43.269427 22.044454-63.317249 33.145912a428.171291 428.171291 0 0 0-13.786272 48.39457L140.352857 411.905747l-59.690712 44.768034A569.692246 569.692246 0 0 0 72.440184 556.786116a289.724516 289.724516 0 0 0 98.215307-20.699783C174.666866 520.923697 181.10046 495.57416 181.10046 488.873443c0-8.054443 3.096818 28.143012 4.165311 40.901539A310.324694 310.324694 0 0 0 253.540644 485.885285v-51.34198l16.299042 36.718118a326.234369 326.234369 0 0 0 60.668654-77.465722v-239.95811s-108.452011 52.872279-185.627972 144.880369zM796.842025 19.080739c276.812054 0 501.195524-32.910481 501.195524-73.508677s-224.38347-73.508677-501.195524-73.508677-501.195524 32.910481-501.195524 73.508677S520.043554 19.080739 796.842025 19.080739zM704.254415 256.503442h180.557159l47.538871-293.092985h-275.589626zM711.317333 245.026201h166.431323l43.781036-270.147557h-253.993395zM289.760736 760.524133m27.16507 0l959.832439 0q27.165069 0 27.165069-27.165069l0-611.214053q0-27.165069-27.165069-27.165069l-959.832439 0q-27.165069 0-27.16507 27.165069l0 611.214053q0 27.165069 27.16507 27.165069ZM330.467592 744.890636H1260.459204a27.165069 27.165069 0 0 0 27.165069-27.165069v-578.615971a27.165069 27.165069 0 0 0-27.165069-27.165069H330.467592a27.165069 27.165069 0 0 0-27.165069 27.165069v578.615971a27.165069 27.165069 0 0 0 27.165069 27.165069zM331.866594 744.895164h929.498112a27.165069 27.165069 0 0 0 27.165069-27.165069v-460.665241H304.701524V717.730095a27.165069 27.165069 0 0 0 27.16507 27.165069zM796.276086 181.64104m-24.199549 0a24.199549 24.199549 0 1 1 48.399098 0 24.199549 24.199549 0 1 1-48.399098 0ZM294.256555 257.911498h1000.580044v-13.523676h-1000.580044v13.501039zM919.945063 439.917461a24.181439 24.181439 0 0 0-24.176911-24.190494h-202.379765a24.181439 24.181439 0 0 0-24.176911 24.190494V562.060666a24.099944 24.099944 0 0 0 7.108193 17.123049l-0.679127 0.425586h1.177153a24.099944 24.099944 0 0 0 16.570692 6.641859h202.379765a24.099944 24.099944 0 0 0 16.570692-6.641859h1.177153l-0.679127-0.402948a24.127109 24.127109 0 0 0 7.108193-17.145687v-122.143205z m-131.433659 67.120358L688.770326 571.165492a24.113526 24.113526 0 0 1-9.55305-19.137791v-102.090857a24.185966 24.185966 0 0 1 24.176912-24.195022h182.368163a24.185966 24.185966 0 0 1 24.176912 24.195022V552.027701a24.127109 24.127109 0 0 1-10.141626 19.617707zM1247.14832 874.255222a45.24795 45.24795 0 0 0 77.329896 0l110.01853-180.810699a45.275115 45.275115 0 0 0-38.710223-68.818175H1175.794739a45.275115 45.275115 0 0 0-38.664949 68.818175zM1270.193353 828.581686h34.952389l-3.848384-127.965585h-27.25562z m3.848385-135.970225h27.25562v-27.993604h-27.25562v27.993604z"  horiz-adv-x="1441" />

    
    <glyph glyph-name="shibai" unicode="&#58936;" d="M128 352c0 160 128 288 288 288 96 0 179.2-44.8 230.4-115.2l89.6 89.6C659.2 704 544 768 416 768 185.6 768 0 582.4 0 352c0-134.4 64-249.6 160-326.4l89.6 89.6C179.2 172.8 128 256 128 352zM896 403.2l-89.6 89.6-192-185.6-185.6 185.6-89.6-89.6 185.6-185.6-185.6-192 89.6-89.6 185.6 185.6 192-185.6 89.6 89.6-185.6 192z"  horiz-adv-x="1024" />

    
    <glyph glyph-name="chenggong" unicode="&#58935;" d="M416 768C185.6 768 0 582.4 0 352c0-217.6 166.4-396.8 384-416V64c-140.8 19.2-256 134.4-256 281.6C128 512 256 640 416 640c96 0 179.2-44.8 230.4-115.2l89.6 89.6C659.2 710.4 544 768 416 768zM544 243.2L364.8 428.8l-89.6-89.6L544 64l454.4 454.4-89.6 89.6z"  horiz-adv-x="1024" />

    
    <glyph glyph-name="shujujiankong" unicode="&#58934;" d="M759.30603446-37.875a174.56896554 174.56896554 0 0 1 174.56896554 174.56896554v-174.56896554H759.30603446z m0 843.75h174.56896554v-174.56896554A174.56896554 174.56896554 0 0 1 759.30603446 805.875zM90.125 631.30603446V805.875h174.56896554A174.56896554 174.56896554 0 0 1 90.125 631.30603446z m101.83189663-523.70689664V660.40086218a43.64224118 43.64224118 0 0 0 43.64224119 43.64224119h552.80172436a43.64224118 43.64224118 0 0 0 43.64224119-43.64224119v-552.80172436a43.64224118 43.64224118 0 0 0-43.64224119-43.64224119H235.59913782a43.64224118 43.64224118 0 0 0-43.64224119 43.64224119z m43.64224119-1.32381492h552.80172436V487.15571154H235.59913782v-380.88038864zM235.59913782 529.47413782h552.80172436v130.92672436H235.59913782v-130.92672436z m240.03232772 43.64224118a21.821121 21.821121 0 1 0 21.821121 21.821121 21.821121 21.821121 0 0 0-21.821121-21.821121z m-87.28448318 0a21.821121 21.821121 0 1 0 21.82112101 21.821121 21.821121 21.821121 0 0 0-21.82112101-21.821121z m-87.28448236 0a21.821121 21.821121 0 1 0 21.821121 21.821121 21.821121 21.821121 0 0 0-21.821121-21.821121z m363.68534454-392.78017227a21.821121 21.821121 0 0 0-21.82112017 21.821121v80.49084054a21.821121 21.821121 0 0 0 43.64224117 0V202.15732773000002a21.821121 21.821121 0 0 0-21.821121-21.821121z m-101.97737017-1e-8a21.821121 21.821121 0 0 0-21.821121 21.82112101v189.116379a21.821121 21.821121 0 0 0 43.64224117-1e-8v-189.11637899a21.821121 21.821121 0 0 0-21.82112017-21.82112101z m-101.54094874 0a21.821121 21.821121 0 0 0-21.82112017 21.82112101v80.49084054a21.821121 21.821121 0 0 0 43.64224117 0V202.15732773000002a21.821121 21.821121 0 0 0-21.821121-21.821121z m-101.97737017 0a21.821121 21.821121 0 0 0-21.821121 21.82112101v142.56465464a21.821121 21.821121 0 1 0 43.64224117-1e-8v-142.56465463a21.821121 21.821121 0 0 0-21.82112017-21.82112101zM264.69396554-37.875H90.125V136.69396554000002a174.56896554 174.56896554 0 0 1 174.56896554-174.56896554z"  horiz-adv-x="1024" />

    
    <glyph glyph-name="xitongyunwei" unicode="&#58933;" d="M991.40340925 96.35795461999999H780.46590924v-76.70454537h95.88068152v-57.52840925H262.7102269v57.52840925h95.88068235v76.70454537H147.65340924a57.52840924 57.52840924 0 0 0-57.52840924 57.52840925V748.34659076a57.52840924 57.52840924 0 0 0 57.52840925 57.52840924h843.75a57.52840924 57.52840924 0 0 0 57.52840923-57.52840925v-594.46022688a57.52840924 57.52840924 0 0 0-57.52840923-57.52840925z m-575.28409077-76.70454537h306.81818152v76.70454537H416.11931848v-76.70454537zM991.40340925 748.34659076H147.65340924v-594.46022689h843.75V748.34659076zM738.27840924 251.20525597999995l-118.89204537 118.98792554a85.79403424 85.79403424 0 0 0-114.55823887 114.55823886l43.72159076-43.72159076a28.76420462 28.76420462 0 0 1 40.67258561 40.67258478l-43.72159077 43.72159158a85.79403424 85.79403424 0 0 0 114.55823803-114.55823886l119.00710274-118.98792636a28.80255652 28.80255652 0 1 0-40.78764213-40.67258478z m3.27911902 118.10582364l-44.23934674 44.23934675a126.9460231 126.9460231 0 1 1-80.71235789-80.71235789l44.10511387-44.20099485a180.9460231 180.9460231 0 0 0-52.9836644-17.25852226V240.17897689999995a28.76420462 28.76420462 0 0 0-57.52840923 0v31.25710272a181.1569606 181.1569606 0 0 0-77.91264212 32.33096576l-22.1484375-22.12926114a28.76420462 28.76420462 0 1 0-40.67258562 40.67258478l22.11008562 22.1100856A180.9460231 180.9460231 0 0 0 399.359375 422.3522731H368.1789769a28.76420462 28.76420462 0 0 0 0 57.52840842h31.1803981a180.9460231 180.9460231 0 0 0 32.36931848 77.93181848l-22.1100856 22.1100856a28.76420462 28.76420462 0 1 0 40.6725856 40.67258478l22.1484375-22.12926113A181.1569606 181.1569606 0 0 0 550.3522731 630.796875V662.0539769a28.76420462 28.76420462 0 0 0 57.52840842 0v-31.2571019a181.1569606 181.1569606 0 0 0 77.91264211-32.33096575l22.1484375 22.12926113a28.76420462 28.76420462 0 1 0 40.67258561-40.67258478l-22.11008561-22.1100856A180.9460231 180.9460231 0 0 0 758.87357962 479.88068152H790.0539769a28.76420462 28.76420462 0 0 0 0-57.52840842h-31.18039728a180.6008519 180.6008519 0 0 0-17.2585231-53.02201712z"  horiz-adv-x="1163" />

    
    <glyph glyph-name="shujubiaozhunhuaxiaoyan" unicode="&#59471;" d="M725.333333 110.336L482.133333 353.792l59.733334 60.416L725.333333 230.997333l354.133334 353.877334 59.733333-60.416zM256 640v-512H170.666667V640h85.333333z m170.666667-85.333333v-341.333334H341.333333V554.666667h85.333334z m512 256H85.333333v-853.333334h853.333334V128h85.333333v-256H0V896h1024v-256h-85.333333V810.666667z"  horiz-adv-x="1139" />

    
    <glyph glyph-name="chakanzichanshuju" unicode="&#58931;" d="M810.666667-42.666667C645.973333-42.666667 512 170.666667 512 170.666667S645.973333 384 810.666667 384 1109.333333 170.666667 1109.333333 170.666667 975.36-42.666667 810.666667-42.666667z m0 340.224A322.816 322.816 0 0 1 597.333333 170.666667a242.773333 242.773333 0 0 1 426.666667 0 322.816 322.816 0 0 1-213.333333 126.890666zM810.666667 128a42.666667 42.666667 0 1 0 42.666666 42.666667 42.666667 42.666667 0 0 0-42.666666-42.666667zM768 810.666667H85.333333v-853.333334h341.333334v-85.333333H0V896h853.333333v-426.666667H768V810.666667zM170.666667 384h341.333333v-85.333333H170.666667V384z m0 341.333333h512v-85.333333H170.666667V725.333333z m0-170.666666h426.666666v-85.333334H170.666667V554.666667z"  horiz-adv-x="1109" />

    
    <glyph glyph-name="zhankai-zuo" unicode="&#58930;" d="M919.1 662.52c0 18.88-15.31 34.19-34.19 34.19H312.17c-18.88 0-34.19-15.31-34.19-34.19s15.31-34.19 34.19-34.19h572.74c18.88 0 34.19 15.31 34.19 34.19zM919.1 388.97c0 18.88-15.31 34.19-34.19 34.19H475.2c-18.88 0-34.19-15.31-34.19-34.19s15.31-34.19 34.19-34.19h409.71c18.88 0 34.19 15.31 34.19 34.19zM277.98 115.43c0-18.88 15.31-34.19 34.19-34.19h572.74c18.88 0 34.19 15.31 34.19 34.19s-15.31 34.19-34.19 34.19H312.16c-18.88 0-34.19-15.31-34.18-34.19zM131.22 376.61l91.18-52.64 91.18-52.64c9.5-5.48 21.37 1.37 21.37 12.34V494.25c0 10.97-11.87 17.82-21.37 12.34l-91.18-52.64-91.18-52.64c-9.49-5.48-9.49-19.19 0-24.7z"  horiz-adv-x="1024" />

    
    <glyph glyph-name="zhankai1" unicode="&#58928;" d="M165.19 633.68h572.74c18.88 0 34.19 15.31 34.19 34.19 0 18.88-15.31 34.19-34.19 34.19H165.19c-18.88 0-34.19-15.31-34.19-34.19 0-18.88 15.31-34.19 34.19-34.19zM165.19 360.13H574.9c18.88 0 34.19 15.31 34.19 34.19 0 18.88-15.31 34.19-34.19 34.19H165.19c-18.88 0-34.19-15.31-34.19-34.19 0-18.88 15.31-34.19 34.19-34.19zM737.94 154.97H165.19c-18.88 0-34.19-15.31-34.19-34.19 0-18.88 15.31-34.19 34.19-34.19h572.74c18.88 0 34.19 15.31 34.19 34.19 0.01 18.88-15.3 34.19-34.18 34.19zM918.88 406.66L827.7 459.3l-91.18 52.64c-9.5 5.48-21.37-1.37-21.37-12.34v-210.58c0-10.97 11.87-17.82 21.37-12.34l91.18 52.64 91.18 52.64c9.49 5.51 9.49 19.22 0 24.7z"  horiz-adv-x="1024" />

    
    <glyph glyph-name="jingxiang" unicode="&#58929;" d="M222.74 91c-13.45 0-26.58 4.33-36.93 12.47-11.99 9.44-18.87 23.12-18.87 37.53V627.04c0 14.42 6.88 28.1 18.87 37.53 14.13 11.12 33.46 15.12 51.69 10.71l215.44-52.12c24.24-5.86 41.17-25.7 41.17-48.24v-381.8c0-22.54-16.93-42.38-41.17-48.24L237.5 92.76a62.825 62.825 0 0 0-14.76-1.76z m-0.01 540.61c-3.86 0-7.01-1.32-8.82-2.74-1.15-0.91-1.53-1.66-1.53-1.82V141c0-0.16 0.38-0.91 1.53-1.82 2.41-1.9 7.23-3.63 12.91-2.25l215.44 52.12c4.52 1.09 6.31 3.51 6.42 4.09V574.92c-0.1 0.57-1.89 2.98-6.41 4.07l-215.44 52.12c-1.43 0.35-2.8 0.5-4.1 0.5zM840.47 91c-4.92 0-9.88 0.58-14.76 1.76l-215.44 52.12c-24.24 5.86-41.17 25.7-41.17 48.24v381.8c0 22.54 16.93 42.38 41.17 48.24l215.44 52.12c18.24 4.42 37.56 0.41 51.69-10.71 11.99-9.44 18.87-23.12 18.87-37.53V141c0-14.42-6.88-28.09-18.87-37.53-10.34-8.14-23.48-12.47-36.93-12.47z"  horiz-adv-x="1024" />

    
    <glyph glyph-name="baocun1" unicode="&#58926;" d="M823.232 820.26666667H173.67466667c-51.98933333 0-94.29333333-42.29333333-94.29333334-94.29333334v-649.55733333c0-57.77066667 46.99733333-104.768 104.768-104.768h639.08266667c57.77066667 0 104.768 46.99733333 104.768 104.768V715.49866667c0 57.77066667-46.99733333 104.768-104.768 104.768zM709.30133333 525.61066667H298.09066667V756.096h411.21066666v-230.48533333z m155.84-449.19466667c0-23.104-18.79466667-41.90933333-41.90933333-41.90933333H184.16c-23.104 0-41.90933333 18.79466667-41.90933333 41.90933333V725.9733333300001c0 17.33333333 14.10133333 31.43466667 31.43466666 31.43466667h61.57866667c-0.01066667-0.43733333-0.032-0.87466667-0.032-1.312v-230.48533333c0-34.656 28.20266667-62.85866667 62.85866667-62.85866667h411.21066666c34.656 0 62.85866667 28.20266667 62.85866667 62.85866667V756.096c0 0.43733333-0.02133333 0.87466667-0.032 1.312h51.104c23.104 0 41.90933333-18.79466667 41.90933333-41.90933333v-639.08266667zM633.344 708.94933333c-17.35466667 0-31.43466667-14.06933333-31.43466667-31.43466666v-73.33333334c0-17.35466667 14.06933333-31.43466667 31.43466667-31.43466666 17.35466667 0 31.43466667 14.06933333 31.43466667 31.43466666v73.33333334c0 17.36533333-14.08 31.43466667-31.43466667 31.43466666z"  horiz-adv-x="1024" />

    
    <glyph glyph-name="guanlianyinyong1" unicode="&#58927;" d="M612.928 405.35466667v-88.10666667c0-17.696-14.34666667-32.04266667-32.04266667-32.04266667H175.05066667c-17.696 0-32.04266667 14.34666667-32.04266667 32.04266667V723.08266667c0 17.696 14.34666667 32.04266667 32.04266667 32.04266666h405.83466666c17.696 0 32.04266667-14.34666667 32.04266667-32.04266666v-88.10666667c0-17.696 14.34666667-32.04266667 32.04266667-32.04266667s32.04266667 14.34666667 32.04266666 32.04266667v88.10666667c0 53.088-43.02933333 96.11733333-96.11733333 96.11733333H175.05066667c-53.088 0-96.11733333-43.02933333-96.11733334-96.11733333v-405.83466667c0-53.088 43.02933333-96.11733333 96.11733334-96.11733333h405.83466666c53.088 0 96.11733333 43.02933333 96.11733334 96.11733333v88.10666667c0 17.696-14.34666667 32.04266667-32.04266667 32.04266666-17.68533333 0-32.032-14.34666667-32.032-32.04266666zM842.54933333 557.5466666699999H436.71466667c-53.088 0-96.11733333-43.02933333-96.11733334-96.11733334v-88.10666666c0-17.696 14.34666667-32.04266667 32.04266667-32.04266667s32.04266667 14.34666667 32.04266667 32.04266667v88.10666666c0 17.696 14.34666667 32.04266667 32.04266666 32.04266667H842.56c17.696 0 32.04266667-14.34666667 32.04266667-32.04266667v-405.83466666c0-17.696-14.34666667-32.04266667-32.04266667-32.04266667H436.71466667c-17.696 0-32.04266667 14.34666667-32.04266667 32.04266667v88.10666666c0 17.696-14.34666667 32.04266667-32.04266667 32.04266667s-32.04266667-14.34666667-32.04266666-32.04266667v-88.10666666c0-53.088 43.02933333-96.11733333 96.11733333-96.11733334h405.83466667c53.088 0 96.11733333 43.02933333 96.11733333 96.11733334V461.41866667c0.01066667 53.088-43.01866667 96.128-96.10666667 96.128z"  horiz-adv-x="1024" />

    
    <glyph glyph-name="baocun" unicode="&#58923;" d="M939 654.02c0 51.904-42.076 93.98-93.98 93.98H250.98c-51.904 0-93.98-42.076-93.98-93.98v-594.04c0-51.904 42.076-93.98 93.98-93.98h594.04c51.904 0 93.98 42.076 93.98 93.98V654.02z m-151 41.802v-227.53c0-5.363-4.635-10.292-9.997-10.292H317.997c-5.363 0-9.997 4.929-9.997 10.292v227.53c0 5.363 4.634 10.178 9.997 10.178h460.007c5.361 0 9.996-4.815 9.996-10.178z m111-635.601C899 30.22 874.78 6 844.779 6H251.221C221.22 6 197 30.22 197 60.221V653.779C197 683.78 221.22 708 251.221 708h18.94c-1.025-4-1.161-7.901-1.161-12.178v-227.53C269 441.018 290.723 419 317.997 419h460.007C805.278 419 827 441.018 827 468.292v227.53c0 4.277-0.136 8.178-1.161 12.178h18.94C874.78 708 899 683.78 899 653.779v-593.558zM689 646h40v-131h-40z"  horiz-adv-x="1024" />

    
    <glyph glyph-name="guanlianyinyong" unicode="&#58925;" d="M697.93884708 330.60222799999997V456.42444378h-49.71026963v-125.82221578c0-37.59339141-30.92669191-67.49549943-68.52008331-67.49549944H146.43792657C108.84453516 263.10672855999997 77.94131754 293.00883658 77.94131754 330.60222799999997V763.87279555C77.94131754 801.46618696 108.84453516 832.0131476399999 146.43792657 832.0131476399999h433.27056757C617.30188556 832.0131476399999 648.22857745 801.46618696 648.22857745 763.87279555V637.3145916000001h49.71026963v126.55820395C697.93884708 828.80545441 644.641153 881.72341728 579.70849414 881.72341728H146.43792657C81.5052677 881.72341728 28.2310479 828.80545441 28.2310479 763.87279555V330.60222799999997c0-64.93265886 53.27421981-117.20576907 118.20687867-117.20576907h433.27056757C644.641153 213.39645893 697.93884708 265.66956914 697.93884708 330.60222799999997zM889.99033127 568.2725504499999H456.7197637c-64.93265886 0-117.79953061-52.1515962-117.7995306-117.08425506V325.2445656h49.71026963v125.94372979C388.63050273 488.78168679 419.1263723 519.94312163 456.7197637 519.94312163h433.27056757C927.58372269 519.94312163 957.53692181 488.78168679 957.53692181 451.18829539v-433.27056757C957.53692181-19.67566359 927.58372269-50.34413828000004 889.99033127-50.34413828000004H456.7197637c-37.59339141 0-68.08926098 30.66847469-68.08926097 68.2618661V144.35441777999995h-49.71026963v-126.43668996C338.9202331-47.01493105999998 391.78710484-100.05440791000001 456.7197637-100.05440791000001h433.27056757C954.92299013-100.05440791000001 1007.24719143-47.01493105999998 1007.24719143 17.917727819999982V451.18829539C1007.24719143 516.1209542500001 954.92299013 568.2725504499999 889.99033127 568.2725504499999z"  horiz-adv-x="1024" />

    
    <glyph glyph-name="quanjuguizeyinqing" unicode="&#58922;" d="M296.78 530.813v-275.626c0-29.76 24.213-53.973 53.973-53.973h336.606c29.76 0 53.973 24.213 53.973 53.973V530.813c0 29.76-24.213 53.973-53.973 53.973H350.753c-29.76 0-53.973-24.212-53.973-53.973z m390.579-293.617H350.753c-9.92 0-17.991 8.071-17.991 17.991V460.466H705.35v-205.279c0-9.92-8.071-17.991-17.991-17.991zM350.753 548.804h336.606c9.92 0 17.991-8.071 17.991-17.991v-34.365H332.762v34.365c0 9.92 8.071 17.991 17.991 17.991zM433.951 414.696c-5.269 5.269-13.812 5.269-19.081 0l-44.468-44.468c-4.678-4.676-7.254-10.906-7.254-17.543s2.576-12.867 7.252-17.541l44.469-44.471c5.268-5.269 13.81-5.269 19.08-0.001l0.002 0.002c5.27 5.269 5.27 13.812 0.001 19.082l-42.93 42.93 42.929 42.931c5.269 5.267 5.269 13.81 0 19.079zM604.161 414.696c-5.269-5.269-5.269-13.811 0-19.08l42.929-42.931-42.93-42.93c-5.269-5.269-5.269-13.813 0.001-19.082l0.002-0.002c5.269-5.268 13.811-5.267 19.08 0.001l44.465 44.467c4.68 4.678 7.256 10.908 7.256 17.545s-2.576 12.867-7.254 17.543l-44.468 44.468c-5.269 5.27-13.812 5.27-19.081 0.001zM495.868 283.011c7.043-2.434 14.726 1.302 17.161 8.345l37.558 108.658c2.435 7.043-1.302 14.727-8.345 17.161-7.043 2.434-14.726-1.302-17.161-8.345l-37.558-108.658c-2.435-7.044 1.302-14.727 8.345-17.161zM362.07 520.847m-8.131 0a8.131 8.131 0 1 1 16.262 0 8.131 8.131 0 1 1-16.262 0ZM404.081 520.847m-8.131 0a8.131 8.131 0 1 1 16.262 0 8.131 8.131 0 1 1-16.262 0ZM446.092 520.847m-8.131 0a8.131 8.131 0 1 1 16.262 0 8.131 8.131 0 1 1-16.262 0ZM201.441 90.432V207.56c0 7.451-6.041 13.492-13.492 13.492h-8.998c-7.451 0-13.492-6.041-13.492-13.492v-117.128c0-29.809 24.165-53.973 53.973-53.973h121.442c7.451 0 13.492 6.041 13.492 13.492v8.998c0 7.451-6.041 13.492-13.492 13.492H219.432c-9.936 0-17.991 8.055-17.991 17.991zM842.559 90.432c0-9.936-8.055-17.991-17.991-17.991H700.691c-7.451 0-13.492-6.041-13.492-13.492v-8.998c0-7.451 6.041-13.492 13.492-13.492h123.877c29.809 0 53.973 24.165 53.973 53.973V207.56c0 7.451-6.041 13.492-13.492 13.492h-8.998c-7.451 0-13.492-6.041-13.492-13.492v-117.128zM824.568 749.542H702.94c-7.451 0-13.492-6.041-13.492-13.492v-8.998c0-7.451 6.041-13.492 13.492-13.492h121.628c9.936 0 17.991-8.055 17.991-17.991v-119.192c0-7.451 6.041-13.492 13.492-13.492h8.998c7.451 0 13.492 6.041 13.492 13.492V695.568c0 29.809-24.165 53.974-53.973 53.974zM201.441 695.568c0 9.936 8.055 17.991 17.991 17.991h116.942c7.451 0 13.492 6.041 13.492 13.492v8.998c0 7.451-6.041 13.492-13.492 13.492H219.432c-29.809 0-53.973-24.165-53.973-53.973v-121.441c0-7.451 6.041-13.492 13.492-13.492h8.998c7.451 0 13.492 6.041 13.492 13.492V695.568z"  horiz-adv-x="1024" />

    
    <glyph glyph-name="shujuyuan" unicode="&#58914;" d="M842.708 769H181.292C148.874 769 122 742.127 122 709.708v-651.86C122 25.43 148.874-1 181.292-1h661.415C875.125-1 901 25.43 901 57.848v651.86C901 742.127 875.125 769 842.708 769zM862 57.848c0-10.806-8.487-19.848-19.292-19.848H181.292C170.487 38 161 47.042 161 57.848V242h701v-184.152zM862 283H161V484h701v-201zM161 526V709.708c0 10.806 9.487 20.292 20.292 20.292h661.415c10.806 0 19.292-9.486 19.292-20.292V526H161zM249.299 362h53.74c12.425 0 22.497 9.075 22.497 21.5S315.464 405 303.039 405h-53.74c-12.425 0-22.497-9.076-22.497-21.5 0-12.425 10.072-21.5 22.497-21.5zM251.299 626.419m-24.497 0a24.497 24.497 0 1 1 48.994 0 24.497 24.497 0 1 1-48.994 0ZM359.085 626.419m-24.497 0a24.497 24.497 0 1 1 48.994 0 24.497 24.497 0 1 1-48.994 0ZM466.871 626.419m-24.497 0a24.497 24.497 0 1 1 48.994 0 24.497 24.497 0 1 1-48.994 0ZM251.299 141.137m-24.497 0a24.497 24.497 0 1 1 48.994 0 24.497 24.497 0 1 1-48.994 0Z"  horiz-adv-x="1024" />

    
    <glyph glyph-name="shishishujufuwu" unicode="&#58915;" d="M736.859 299.701c-74.602 2.424-136.135-55.119-135.53-129.332 0.561-68.768 55.209-126.063 123.882-129.719 74.755-3.98 137.049 55.263 138.088 128.933 0.992 70.381-56.09 127.832-126.44 130.118z m-4.541-232.507c-56.14 0-104.26 45.447-104.26 104.26 0 58.814 48.12 101.587 104.26 101.587 56.14 0 104.26-45.447 104.26-101.587 0.001-56.14-45.446-104.26-104.26-104.26zM745.685 243.635c0 8.02-5.347 13.367-13.367 13.367s-13.367-5.347-13.367-13.367v-88.22h88.22c8.02 0 13.367 5.347 13.367 13.367s-5.347 16.04-13.367 16.04h-61.487v58.813zM810.284 730.893H213.716c-29.239 0-53.028-23.789-53.028-53.028v-587.95c0-29.165 23.643-52.808 52.808-52.808h350.492c14.089 0 22.116 15.847 14.025 27.38l-0.261 0.374c-3.281 4.705-8.577 7.598-14.313 7.598H213.716c-9.762 0-17.676 7.914-17.676 17.676V258.058h359.663c5.659 0 10.949 2.896 13.911 7.718l0.209 0.339c6.756 10.963-1.031 25.086-13.908 25.086H196.04V474.59h631.92v-133.85c0-5.961 3.065-11.467 8.065-14.713l0.372-0.242c11.578-7.554 26.916 0.891 26.916 14.715V677.865c-0.001 29.239-23.79 53.028-53.029 53.028zM196.04 512.152V677.865c0 9.746 7.93 17.676 17.676 17.676h596.568c9.746 0 17.676-7.93 17.676-17.676v-165.713H196.04zM275.055 403.886c-11.206 0-20.291-8.679-20.291-19.886s9.085-19.886 20.291-19.886h48.471c11.206 0 20.291 8.679 20.291 19.886s-9.085 19.886-20.291 19.886h-48.471zM276.859 602.742m-22.095 0a22.095 22.095 0 1 1 44.19 0 22.095 22.095 0 1 1-44.19 0ZM374.077 602.742m-22.095 0a22.095 22.095 0 1 1 44.19 0 22.095 22.095 0 1 1-44.19 0ZM471.296 602.742m-22.095 0a22.095 22.095 0 1 1 44.19 0 22.095 22.095 0 1 1-44.19 0ZM276.859 165.039m-22.095 0a22.095 22.095 0 1 1 44.19 0 22.095 22.095 0 1 1-44.19 0Z"  horiz-adv-x="1024" />

    
    <glyph glyph-name="chanpin" unicode="&#58903;" d="M876.695 605.472a26.721 26.721 0 0 1-15.789 24.849l-326.81 146.683a65.736 65.736 0 0 1-27.095 5.802 65.733 65.733 0 0 1-27.321-5.903L156.242 630.278a26.719 26.719 0 0 1-15.697-24.803 26.73 26.73 0 0 1 16.524-24.268l324.65-134.19a65.943 65.943 0 0 1 25.277-5.019 65.857 65.857 0 0 1 25.062 4.93L860.09 581.172a26.723 26.723 0 0 1 16.605 24.3zM515.348 487.758a22.156 22.156 0 0 0-16.78 0.03L210.98 606.657l286.912 130.067a22.159 22.159 0 0 0 18.142 0.035l289.858-130.1-290.544-118.901zM456.518 421.484l-0.969 0.409-281.038 119.174a25.756 25.756 0 0 1-10.658 2.329c-14.354 0-26.076-12.103-26.098-26.974L137 131.699c-0.035-18.665 9.803-35.544 25.072-43.002l0.883-0.433 259.132-99.055c5.124-2.329 10.884-3.508 16.409-3.508 23.231 0 42.502 21.042 42.502 46.906V379.069c0.002 18.115-9.833 34.763-24.48 42.415zM437 32.607c0-0.563-0.476-1.064-0.549-1.5l-254.382 97.159a6.773 6.773 0 0 0-0.858 3.35l0.639 358.401 253.969-107.558c0.312-0.544 1.182-1.699 1.182-3.39v-346.462zM877.112 516.412c-0.022 14.882-11.721 26.984-26.074 26.984-3.64 0-7.281-0.802-10.611-2.329l-280.13-118.826-1.895-0.759C543.755 413.829 534 397.179 534 379.069v-346.462c0-25.864 19.195-46.906 42.426-46.906a39.166 39.166 0 0 1 16.186 3.508l258.286 98.702 1.843 0.786c15.269 7.458 25.131 24.338 25.096 43.005l-0.725 384.71zM832.99 128.266l-254.518-97.159c-0.073 0.436-0.471 0.937-0.471 1.5V379.069c0 1.691 0.821 2.846 1.131 3.39l253.743 107.558 0.78-358.398c0.001-1.646-0.353-2.787-0.665-3.353z"  horiz-adv-x="1024" />

    
    <glyph glyph-name="APIKeyguanli" unicode="&#58904;" d="M562.965 389.021l-0.039-0.021h-0.158a19.43 19.43 0 0 1-14.276-6.21c-3.867-4.105-6-9.494-5.955-15.133-0.017-5.634 2.112-11.145 5.955-15.265 3.688-3.977 8.852-6.393 14.276-6.393h0.197c5.438 0 10.618 2.43 14.315 6.418a22.054 22.054 0 0 1 5.915 15.186c0.182 11.444-8.794 20.949-20.23 21.418zM617.465 253h120.317c11.87 0 20.909 10.433 20.19 22.302-0.659 10.866-9.324 19.698-20.19 19.698H617.465c-5.424 0-10.587-2.555-14.276-6.532-3.86-4.109-5.992-9.656-5.955-15.294-0.015-5.645 2.113-10.427 5.955-14.563 3.695-3.963 8.858-5.611 14.276-5.611zM601.694 462.077a24.781 24.781 0 0 1 13.9-4.22c1.895-0.021 3.768 0.3 5.55 0.946 24.615 9.17 43.141 29.269 50.845 54.382l0.012 1.104v0.946c0 0.118 0.653 0.67 0.85 1.104 0.398 1.157 0.909 2.344 1.115 3.549 1.498 5.292 0.09 10.979-3.839 14.828-18.824 27.669-41.897 52.151-68.447 72.522-4.1 2.8-8.93 4.286-13.895 4.259-1.86 0.06-3.699-0.262-5.429-0.946-24.601-9.191-44.368-29.282-52.094-54.381L529 555.065v-0.907c0-0.118 0.597-0.67 0.4-1.104-0.499-1.518-0.374-3.097-0.451-4.693 0.093-4.351 1.494-8.615 3.603-12.422l0.448-0.395v-0.434c19-27.864 42.023-52.522 68.694-73.033z m-14.752 120.672a264.22 264.22 0 0 0 58.246-61.598 48.268 48.268 0 0 0-29.064-32.021 273.174 273.174 0 0 0-57.891 61.401 53.91 53.91 0 0 0 28.709 32.218zM562.965 201h-0.197c-5.418 0-10.581-2.852-14.276-6.815-7.913-8.59-7.913-21.55 0-30.14 3.688-3.977 8.852-6.045 14.276-6.045h0.197c5.438 0 10.618 1.785 14.315 5.773 3.832 4.124 5.947 9.83 5.915 15.459 0.225 11.473-8.763 21.768-20.23 21.768zM562.965 294.896l-0.039 0.104h-0.158c-5.424 0-10.587-2.555-14.276-6.532-3.86-4.109-5.992-9.656-5.955-15.294-0.015-5.645 2.113-10.427 5.955-14.563 3.695-3.963 8.858-5.611 14.276-5.611h0.197c5.426 0 10.594 1.606 14.315 5.555 3.834 4.138 5.949 9.335 5.915 14.976 0.206 11.488-8.754 20.813-20.23 21.365zM737.782 201H617.465c-5.418 0-10.581-2.852-14.276-6.815-7.913-8.59-7.913-21.55 0-30.14 3.688-3.977 8.852-6.045 14.276-6.045h120.317c7.471 0 14.365 3.469 17.864 10.071 3.66 6.767 3.66 15.199 0 21.966-3.49 6.619-10.38 10.963-17.864 10.963zM617.465 389a19.43 19.43 0 0 1-14.276-6.21c-3.867-4.105-6-9.494-5.955-15.133-0.017-5.634 2.112-11.145 5.955-15.265 3.688-3.977 8.852-6.393 14.276-6.393h120.317c7.471 0 14.365 4.114 17.864 10.716 3.66 6.767 3.769 14.977 0.109 21.743C752.298 385.1 746 389.264 738 389.121V389H617.465zM453 305.518V264h-33.343C400.629 264 387 247.512 387 228.461V192h-39.628c-9.023 0-17.549-3.211-23.425-10.059L300.759 158H253v49.482l220.15 234.01c-12.481 21.893-19.208 46.612-19.451 71.812-2.3 75.964 57.383 139.414 133.346 141.731 75.869-2.227 135.556-65.536 133.329-141.405-0.003-0.109-0.013-0.135-0.016-0.243 0.5-25.608-5.618-50.386-17.752-73.386h40.263c9.935 23 15.021 48.134 14.946 73.386 0.735 95.238-74.249 173.829-169.414 177.615-95.083-3.174-169.744-82.578-167.088-177.677a178.928 178.928 0 0 1 11.555-64.566L229.765 232.607c-6.134-5.609-10.765-13.669-8.765-21.971v-53.75C221 137.82 235.143 121 254.186 121h50.556c7.899 0 15.349 4.314 20.625 10.199L349.817 158h38.805C407.665 158 424 173.667 422 192.733V230h34.056C475.099 230 489 245.321 489 264.387v41.21l21 19.718v52.41l-45.694-47.323C457.711 323.794 453 314.854 453 305.518z"  horiz-adv-x="1024" />

    
    <glyph glyph-name="guizeyinqing" unicode="&#58906;" d="M936 649.496C936 682.359 909.359 709 876.496 709H209.504C176.641 709 150 682.359 150 649.496v-554.993C150 61.641 176.641 35 209.504 35h666.993C909.359 35 936 61.641 936 94.504V649.496zM208.47 669h668.141c10.937 0 19.389-7.205 19.389-18.141V548H190V650.859c0 10.936 7.533 18.141 18.47 18.141z m668.141-594H208.47c-10.937 0-18.47 8.347-18.47 19.284V509h706v-414.716c0-10.937-8.452-19.284-19.389-19.284zM386.842 412.264c-7.746 7.747-20.306 7.747-28.052 0l-81.892-81.893c-8.41-8.409-13.042-19.617-13.042-31.556 0-11.941 4.632-23.149 13.042-31.558l81.892-81.893c7.746-7.746 20.306-7.746 28.052 0 7.746 7.746 7.746 20.305 0 28.051l-81.894 81.893c-1.236 1.237-1.421 2.726-1.421 3.506 0 0.777 0.185 2.266 1.422 3.504l81.893 81.893c7.745 7.748 7.746 20.306 0 28.053zM698.24 412.264c-7.747-7.747-7.747-20.306-0.001-28.052l81.891-81.893c1.901-1.898 1.901-5.111 0-7.009l-81.891-81.893c-7.746-7.746-7.746-20.305 0-28.051l0.001-0.001c7.746-7.746 20.305-7.746 28.052 0l81.891 81.893c17.399 17.401 17.399 45.712 0 63.114l-81.891 81.893c-7.746 7.745-20.305 7.745-28.052-0.001zM500.12 171.346c10.354-3.578 21.648 1.914 25.226 12.267l71.882 207.959c3.579 10.354-1.914 21.649-12.268 25.227-10.354 3.578-21.647-1.914-25.226-12.267l-71.882-207.959c-3.579-10.354 1.914-21.649 12.268-25.227zM255.335 606.467m-14.876 0a14.876 14.876 0 1 1 29.752 0 14.876 14.876 0 1 1-29.752 0ZM332.194 606.467m-14.876 0a14.876 14.876 0 1 1 29.752 0 14.876 14.876 0 1 1-29.752 0ZM409.053 606.467m-14.876 0a14.876 14.876 0 1 1 29.752 0 14.876 14.876 0 1 1-29.752 0Z"  horiz-adv-x="1024" />

    
    <glyph glyph-name="chanpinleibie" unicode="&#58907;" d="M555.264 124.177L515.421 108h-0.13c-0.445 0-0.767-0.57-1.168-0.572-1.78 0.008-4.123 1.642-4.123 5.255V427.492c0 2.31 0.653 4.461 2.378 5.236l61.49 27.645 202.214 90.694 14.944 6.161 0.05 0.175 0.289-130.766c0.021-9.377 7.625-16.967 17.002-16.967 9.407 0 17.025 7.637 17.004 17.044l-0.34 150.798c-0.017 6.421-2.842 12.099-7.276 16.041-2.173 4.093-5.625 7.441-10.043 9.424L503.515 739.496a39.512 39.512 0 0 1-32.493-0.062L169.899 602.916c-6.118-2.772-10.418-8.22-11.898-14.57a21.563 21.563 0 0 1-3.041-10.992l-0.786-349.575c-0.038-16.239 9.345-30.676 23.904-36.777l274.343-115.001c4.634-1.943 9.492-2.928 14.435-2.928 8.698 0 16.702 3.013 23.139 8.084 6.436-5.071 14.439-8.157 23.136-8.157h0.004c4.942 0 10.69 1.021 15.324 2.964l39.669 16.473c6.342 2.601 10.483 9.024 10.483 15.878 0 12.035-12.225 20.459-23.347 15.862zM470 112.684c0-3.62-1.914-5.55-3.691-5.55-0.404 0-0.545 0.091-0.994 0.28l-274.207 115c-1.778 0.745-2.946 2.918-2.941 5.285l0.773 328.53 46.201-19.089 232.467-104.413c1.726-0.772 2.392-2.925 2.392-5.235v-314.808z m17.32 357.086l-238.698 98.662-36.347 16.287 258.816 117.329a39.515 39.515 0 0 0 32.494 0.061l262.832-117.97-3.93-1.761L487.32 469.77z m26.54-362.635l0.03 0.001-0.024-0.002-0.006 0.001zM645.289 350.5c0-10.911 8.845-19.5 19.756-19.5h227.198c10.911 0 19.756 8.589 19.756 19.5s-8.845 19.5-19.756 19.5H665.045c-10.911 0-19.756-8.589-19.756-19.5zM892.244 271H665.045c-10.911 0-19.756-8.589-19.756-19.5s8.845-19.5 19.756-19.5h227.198c10.911 0 19.756 8.589 19.756 19.5s-8.844 19.5-19.755 19.5zM892.244 172H665.045c-10.911 0-19.756-8.589-19.756-19.5s8.845-19.5 19.756-19.5h227.198c10.911 0 19.756 8.589 19.756 19.5s-8.844 19.5-19.755 19.5z"  horiz-adv-x="1024" />

    
    <glyph glyph-name="jihuo" unicode="&#58908;" d="M697.503 587.5c0 13.758-11.153 25.5-24.911 25.5H345.638c-13.758 0-24.911-11.742-24.911-25.5S331.88 562 345.638 562h326.954c13.758 0 24.911 11.742 24.911 25.5zM348.752 453c-13.758 0-24.911-11.242-24.911-25s11.153-25 24.911-25h49.822c13.758 0 24.911 11.242 24.911 25s-11.153 25-24.911 25h-49.822zM795.972 202.869c-18.993 23.282-47.133 36.635-77.205 36.635-14.427 0-28.65-3.184-41.64-9.167-0.168 0.22-0.313 0.45-0.49 0.666l-54.881 67.264 0.002 0.002 45.065 36.769c10.66 8.698 12.251 24.391 3.553 35.051-8.698 10.66-24.39 12.251-35.05 3.553l-45.065-36.769-0.002-0.503L569.756 361h0.002l44.877 37.27c10.66 8.698 12.365 24.731 3.365 35.391v0.081c-8 10.66-24.202 11.988-34.862 3.291L538.26 400h-0.002l-7.645 9.673c-8.697 10.66-24.39 12.402-35.05 3.704-10.659-8.697-12.25-24.313-3.552-34.973L638.035 199.47c0.166-0.203 0.351-0.362 0.522-0.558-10.472-14.189-17.003-30.961-18.828-48.964-2.685-26.466 5.1-52.388 21.919-72.997 18.993-23.282 47.133-36.633 77.205-36.633 22.846 0 45.19 7.967 62.916 22.429 20.611 16.818 33.44 40.656 36.122 67.12 2.685 26.465-5.099 52.392-21.919 73.002z m-27.647-67.977c-1.341-13.225-7.754-25.137-18.054-33.541-8.986-7.333-19.851-11.21-31.418-11.21-15.04 0-29.11 6.673-38.604 18.309-8.405 10.299-12.294 23.255-10.953 36.481 1.341 13.225 7.754 25.137 18.054 33.541 8.986 7.333 19.851 11.21 31.418 11.21 15.04 0 29.11-6.673 38.604-18.309 8.405-10.299 12.294-23.255 10.953-36.481zM516.9 79H267.475c-6.704 0-12.475 6.927-12.475 13.631v583.92c0 6.153 5.325 11.449 11.478 11.449h485.733c7.588 0 14.789-6.515 14.789-14.103v-310.044c0-13.758 11.242-24.911 25-24.911s25 11.153 25 24.911v323.84C817 715.209 793.523 737 766.008 737H255.336C227.821 737 206 715.209 206 687.693v-607.201C206 52.977 227.821 30 255.336 30H516.9c13.758 0 24.911 10.742 24.911 24.5S530.658 79 516.9 79z"  horiz-adv-x="1024" />

    
    <glyph glyph-name="shebei" unicode="&#58909;" d="M806.996 483C831.748 483 852 503.252 852 528.004V679.996C852 704.748 831.748 725 806.996 725H219.232C195.908 725 177 706.092 177 682.768V527.13c0-24.272 19.858-44.13 44.129-44.13H290v-28h-74.183c-24.2 0-43.817-19.618-43.817-43.817v-266.654c0-24.04 19.488-43.528 43.528-43.528H290v-36c0-17.673 14.327-32 32-32 17.673 0 32 14.327 32 32v36h320v-36c0-17.673 14.327-32 32-32h1c17.673 0 32 14.327 32 32v36h64.613C827.575 101 847 120.425 847 144.387v267.32c0 23.91-19.383 43.292-43.292 43.292H739v28h67.996zM817 526.618a9.618 9.618 0 0 0-9.618-9.618H219.618a9.618 9.618 0 0 0-9.618 9.618V680.382a9.618 9.618 0 0 0 9.618 9.618h587.763a9.618 9.618 0 0 0 9.618-9.618v-153.764z m-3-383a9.618 9.618 0 0 0-9.618-9.618H216.618a9.618 9.618 0 0 0-9.618 9.618V411.382a9.618 9.618 0 0 0 9.618 9.618h587.763a9.618 9.618 0 0 0 9.618-9.618v-267.764zM674 455H354v28h320v-28zM751 309.526C751 330.775 733.775 348 712.526 348h-64.052C627.225 348 610 330.775 610 309.526v-64.052C610 224.225 627.225 207 648.474 207h64.052C733.775 207 751 224.225 751 245.474v64.052z m-34-63.251a4.275 4.275 0 0 0-4.275-4.275h-64.45a4.275 4.275 0 0 0-4.275 4.275v64.45a4.275 4.275 0 0 0 4.275 4.275h64.45a4.275 4.275 0 0 0 4.275-4.275v-64.45zM285.284 604.49m-21.374 0a21.374 21.374 0 1 1 42.748 0 21.374 21.374 0 1 1-42.748 0ZM394.293 604.49m-21.374 0a21.374 21.374 0 1 1 42.748 0 21.374 21.374 0 1 1-42.748 0ZM503.303 604.49m-21.374 0a21.374 21.374 0 1 1 42.748 0 21.374 21.374 0 1 1-42.748 0ZM285.284 316.592m-21.374 0a21.374 21.374 0 1 1 42.748 0 21.374 21.374 0 1 1-42.748 0ZM394.293 316.592m-21.374 0a21.374 21.374 0 1 1 42.748 0 21.374 21.374 0 1 1-42.748 0ZM503.303 316.592m-21.374 0a21.374 21.374 0 1 1 42.748 0 21.374 21.374 0 1 1-42.748 0ZM285.284 239.644m-21.374 0a21.374 21.374 0 1 1 42.748 0 21.374 21.374 0 1 1-42.748 0ZM394.293 239.644m-21.374 0a21.374 21.374 0 1 1 42.748 0 21.374 21.374 0 1 1-42.748 0ZM503.303 239.644m-21.374 0a21.374 21.374 0 1 1 42.748 0 21.374 21.374 0 1 1-42.748 0Z"  horiz-adv-x="1024" />

    
    <glyph glyph-name="shebeijiankong" unicode="&#58910;" d="M786.552 696.316H237.958c-41.259 0-75.017-33.758-75.017-75.017v-355.157c0-39.754 32.227-71.981 71.981-71.981h123.982v-73.486h-48.991c-13.528 0-24.495-10.967-24.495-24.495s10.967-24.495 24.495-24.495h413.359c13.528 0 24.495 10.967 24.495 24.495s-10.967 24.495-24.495 24.495h-55.115v73.486h118.904c40.699 0 73.997 33.299 73.997 73.997v353.65c0.001 40.98-33.527 74.508-74.506 74.508zM619 121H408v73h211v-73z m190 145.495C809 252.967 798.033 242 784.505 242h-548.01C222.967 242 212 252.967 212 266.495v356.01C212 636.033 222.967 647 236.495 647h548.009C798.033 647 809 636.033 809 622.505v-356.01zM512.511 574.86c-70.912 0-128.602-57.691-128.602-128.601s57.691-128.6 128.602-128.6S641.112 375.35 641.112 446.26s-57.689 128.6-128.601 128.6z m0-220.458c-50.652 0-91.859 41.207-91.859 91.858s41.207 91.858 91.859 91.858c50.65 0 91.858-41.207 91.858-91.858s-41.207-91.858-91.858-91.858zM512 449v35.112c-21-0.139-37.483-17.026-37.483-37.853 0-20.913 17.017-37.866 37.929-37.866 20.913 0 37.898 17.877 37.898 38.79 0 0.301-0.006 1.817-0.013 1.817H512z"  horiz-adv-x="1024" />

    
    <glyph glyph-name="shebeiyunwei" unicode="&#58911;" d="M803.788 718.413H218.027c-42.817 0-77.527-34.71-77.527-77.527v-382.695c0-42.304 34.294-76.599 76.598-76.599h129.581v-79.203h-51.545c-14.581 0-26.401-11.82-26.401-26.401s11.82-26.401 26.401-26.401h441.274c14.581 0 26.401 11.82 26.401 26.401s-11.82 26.401-26.401 26.401H677.32v79.203h128.166c43.086 0 78.013 34.928 78.013 78.013V638.701c0.001 43.842-35.869 79.712-79.711 79.712zM625 102H399v79h226v-79z m206 157.206C831 244.733 819.267 233 804.794 233H219.206C204.733 233 193 244.733 193 259.206V638.794C193 653.267 204.733 665 219.206 665h585.587C819.267 665 831 653.267 831 638.794v-379.588zM632.778 473h-24.774c-1.479 6-4.633 13.904-7.75 20.192l17.493 14.619c2.512 2.302 2.716 6.084 0.46 8.637l-23.099 26.662c-2.146 2.668-6.042 3.078-8.727 0.953l-17.773-15.51c-9.955 6.67-22.608 11.351-32.608 13.814v21.611c0 2.453-1.152 4.701-2.886 6.437-1.731 1.738-4.302 2.584-6.755 2.584h-28.871c-2.452 0-5.435-0.84-7.171-2.572-1.732-1.735-3.318-3.976-3.318-6.428v-22.619c-10-2.475-16.509-6.309-24.113-11.363l-20.126 20.625c-1.569 1.501-3.884 1.501-5.453 0l-27.636-27.714c-1.498-1.57-1.459-4.04 0.039-5.61l21.631-21.175c-4.169-7.389-7.261-17.145-9.225-23.145h-30.852c-1.094 0-3.221-0.855-3.994-1.629-0.775-0.774-2.272-2.262-2.272-3.357v-39.104c0-2.247 3.945-6.91 6.193-6.91h30.919c1.598-2 3.641-10.079 6.109-15.575l-22.101-18.257c-2.526-2.287-2.748-5.827-0.499-8.387l23.084-26.576c1.975-2.618 6.088-2.53 8.242-0.39l20.908 18.529C466.6 364.736 477 359.989 487 357.033v-23.581c0-5.104 5.531-9.453 10.635-9.453h28.718c5.093 0 9.646 4.31 9.646 9.404v22.144c6 1.957 20.407 3.114 28.476 7.247l-28.78 28.694c-5.591-1.978-14.405-0.481-20.673-0.481-31.99 0.163-57.908 26.056-58.071 58.046 0.164 31.991 26.042 57.884 58.033 58.061 31.997-0.164 57.89-26.064 58.055-58.061 0-8.218 1.013-13.84-2.621-20.628l27.697-27.431c5.114 8.246 6.607 16.005 9.261 25.005h24.74c2.244 0 1.883 1.246 1.883 3.491V468.5c4.001 1.498 1.238 4.5-1.221 4.5zM555.069 424.314a46.518 46.518 0 0 1 7.25 24.722c0 26.253-21.106 46.698-47.34 46.698-3.135 0-6.088-0.499-9.244-0.98l16.991-17.009c7.653-7.509 7.77-19.801 0.26-27.454-0.086-0.088-0.173-0.174-0.26-0.26l-5.604-5.591c-7.471-7.653-19.731-7.801-27.384-0.33a25.669 25.669 0 0 0-0.33 0.33l-19.112 18.951c-1.602-4.624-2.495-10.311-2.651-15.202-0.059-26.088 21.04-48.189 47.127-48.189h0.219c7.266 0 13.856 2.324 19.964 5.495l60.581-60.203c5.294-5.099 13.672-4.887 18.966 0.212 5.114 5.607 5.114 13.979 0 19.072l-59.433 59.738zM604.723 349h-0.28c-4.009 0-7.257 3.1-7.253 7.109 0.003 4.009 3.256 7.179 7.266 7.175 4.003-0.003 7.248-3.13 7.253-7.133 0.078-3.936-3.05-7.151-6.986-7.151z"  horiz-adv-x="1024" />

    
    <glyph glyph-name="shishigaojing" unicode="&#58912;" d="M543.859 124.58c-13.654 4.551-27.307-4.551-31.859-13.654-9.102-27.307-31.859-45.512-59.166-45.512-31.859 0-59.166 27.307-63.717 59.166h63.717c13.654 0 22.756 9.102 22.756 22.756s-9.102 22.756-22.756 22.756H220.721c36.41 59.166 40.961 141.088 40.961 286.728 0 118.332 77.371 159.293 145.64 172.947 9.102 0 18.205 13.654 18.205 22.756v22.756c0 13.654 13.654 27.307 27.307 27.307 13.654 0 27.307-13.654 27.307-27.307v-22.756c0-9.102 9.102-18.205 18.205-22.756 27.307-4.551 68.269-18.205 100.127-50.064 9.102-9.102 22.756-9.102 31.859 0 9.102 9.102 9.102 22.756 0 31.859-31.859 31.859-72.82 50.064-104.678 59.166v4.551c0 40.961-31.859 72.82-72.82 72.82s-72.82-31.859-72.82-72.82v-4.551c-68.269-18.205-163.845-72.82-163.845-213.908 0-186.601-13.654-250.318-59.166-291.279-9.102-9.102-9.102-18.205-9.102-27.307s13.654-13.654 22.756-13.654h172.947c4.551-59.166 50.064-104.678 109.23-104.678 50.064 0 91.025 31.859 104.678 77.371 4.552 9.102-4.551 22.755-13.653 27.307zM653.088 556.947c-122.883 0-223.011-95.576-223.011-218.459s100.127-223.011 223.011-223.011 223.011 100.127 223.011 223.011-100.127 218.459-223.011 218.459z m0-395.958c-95.576 0-177.498 77.371-177.498 177.498s81.922 172.947 177.498 172.947 177.498-77.371 177.498-172.947-77.37-177.498-177.498-177.498zM780.523 361.244H675.844V461.371c0 13.654-9.102 22.756-22.756 22.756s-22.756-9.102-22.756-22.756V311.18h150.191c13.654 0 22.756 9.102 22.756 22.756s-9.102 27.308-22.756 27.308z"  horiz-adv-x="1024" />

    
    </font>
</defs>
</svg>
